<?xml version="1.0" encoding="utf-8"?>
<!-- Generator: Adobe Illustrator 17.0.0, SVG Export Plug-In . SVG Version: 6.00 Build 0)  -->
<!DOCTYPE svg PUBLIC "-//W3C//DTD SVG 1.1//EN" "http://www.w3.org/Graphics/SVG/1.1/DTD/svg11.dtd">
<svg version="1.1" id="Layer_1" xmlns="http://www.w3.org/2000/svg" xmlns:xlink="http://www.w3.org/1999/xlink" x="0px" y="0px"
	 width="128px" height="128px" viewBox="0 0 128 128" enable-background="new 0 0 128 128" xml:space="preserve">
<g>
	<path fill="#FFFFFF" d="M87.68,76.135c-0.312-1.493-1.519-4.021-4.069-4.021c-0.855,0-1.577,0.182-2.178,0.501
		c-0.598-1.181-1.763-2.65-3.87-2.65c-1.647,0-2.781,0.502-3.537,1.239c-0.671-0.919-1.725-1.69-3.315-1.69
		c-1.023,0-1.843,0.357-2.494,0.881l0-8.876c-0.061-1.581-1.022-4.572-4.224-4.572c-3.412,0-4.628,2.382-4.628,4.611v19.043
		c-0.264-0.108-0.545-0.171-0.842-0.171c-1.557,0-2.857,0.783-3.76,2.266c-1.971,3.233-1.659,9.211-0.752,10.97
		c1.186,2.302,2.99,4.516,5.053,6.966l0.465,0.557c2.451,2.944,7.552,9.07,12.662,9.07c5.214,0,8.006-0.996,10.668-3.806
		c1.81-1.908,4.844-5.636,4.844-9.153V76.339C87.701,76.271,87.694,76.202,87.68,76.135z M85.701,97.3
		c0,2.062-1.565,4.897-4.295,7.778c-2.254,2.378-4.579,3.181-9.217,3.181c-4.174,0-8.869-5.64-11.125-8.351l-0.473-0.565
		c-1.983-2.354-3.714-4.477-4.805-6.593c-0.604-1.172-0.893-6.428,0.683-9.013c0.536-0.879,1.207-1.307,2.052-1.307
		c0.051,0,0.121,0,0.238,0.132c0.278,0.313,0.472,0.905,0.604,1.65v6.974c0,0.049,0.021,0.09,0.028,0.137
		c0.01,0.067,0.017,0.133,0.039,0.195c0.022,0.062,0.054,0.114,0.087,0.17c0.033,0.055,0.062,0.108,0.105,0.155
		c0.043,0.049,0.094,0.086,0.146,0.125c0.05,0.038,0.098,0.076,0.155,0.104c0.06,0.03,0.124,0.045,0.19,0.062
		c0.046,0.012,0.085,0.038,0.133,0.044c0.021,0.003,0.039-0.006,0.06-0.005c0.02,0.001,0.037,0.012,0.058,0.012
		c0.047,0,0.088-0.021,0.134-0.027c0.069-0.01,0.135-0.017,0.199-0.04c0.061-0.022,0.112-0.054,0.167-0.086
		c0.055-0.033,0.109-0.063,0.157-0.106c0.049-0.043,0.086-0.094,0.126-0.146c0.038-0.05,0.076-0.098,0.104-0.155
		c0.03-0.06,0.045-0.123,0.062-0.189c0.012-0.046,0.038-0.085,0.044-0.133c0.108-0.914,0.469-4.441,0.007-7.212V61.559
		c0-1.732,0.884-2.611,2.628-2.611c2.041,0,2.213,2.382,2.225,2.611v12.449v8.037v1.012c0,0.553,0.447,1,1,1s1-0.447,1-1v-8.94
		c0.11-0.463,0.715-2.602,2.493-2.602c1.45,0,1.996,1.194,2.187,1.843c-0.058,0.309-0.096,0.62-0.096,0.93v8.77c0,0.553,0.447,1,1,1
		s1-0.447,1-1v-8.77c0-0.058,0.011-0.107,0.014-0.163c0.096-0.154,0.165-0.326,0.165-0.519v-0.324
		c0.354-0.866,1.229-1.317,2.583-1.317c1.486,0,2.162,1.581,2.382,2.254c-0.269,0.596-0.425,1.297-0.425,2.12v6.449
		c0,0.553,0.447,1,1,1s1-0.447,1-1v-6.449c0-1.601,0.586-2.225,2.091-2.225c1.398,0,1.978,1.912,2.091,2.344V97.3z"/>
	
		<path fill="none" stroke="#FFFFFF" stroke-width="2" stroke-linecap="round" stroke-linejoin="round" stroke-miterlimit="10" stroke-dasharray="3,5" d="
		M59.371,64.616c-4.426-1.509-7.609-5.702-7.609-10.638c0-6.206,5.031-11.237,11.237-11.237s11.237,5.031,11.237,11.237
		c0,4.785-2.991,8.872-7.205,10.492"/>
	<g>
		
			<polyline fill="none" stroke="#FFFFFF" stroke-width="2" stroke-linecap="round" stroke-linejoin="round" stroke-miterlimit="10" points="
			33.524,47.636 27.227,53.934 33.612,60.32 		"/>
		
			<line fill="none" stroke="#FFFFFF" stroke-width="2" stroke-linecap="round" stroke-linejoin="round" stroke-miterlimit="10" x1="27.227" y1="53.934" x2="42.895" y2="53.934"/>
	</g>
	<g>
		
			<polyline fill="none" stroke="#FFFFFF" stroke-width="2" stroke-linecap="round" stroke-linejoin="round" stroke-miterlimit="10" points="
			92.476,60.32 98.773,54.022 92.388,47.636 		"/>
		
			<line fill="none" stroke="#FFFFFF" stroke-width="2" stroke-linecap="round" stroke-linejoin="round" stroke-miterlimit="10" x1="98.773" y1="54.022" x2="83.105" y2="54.022"/>
	</g>
</g>
<g opacity="0.5">
	<path fill="#FFFFFF" d="M27.13,17.623c-0.216,0.512-0.522,0.956-0.918,1.332s-0.868,0.672-1.416,0.888
		c-0.548,0.216-1.15,0.324-1.806,0.324h-3.276v-8.4h3.276c0.656,0,1.258,0.106,1.806,0.318s1.02,0.506,1.416,0.882
		c0.396,0.376,0.702,0.818,0.918,1.326c0.216,0.508,0.324,1.058,0.324,1.65v0.024C27.454,16.559,27.346,17.111,27.13,17.623z
		 M25.522,15.967c0-0.368-0.062-0.708-0.186-1.02s-0.296-0.58-0.516-0.804c-0.22-0.224-0.486-0.398-0.798-0.522
		s-0.656-0.186-1.032-0.186h-1.428v5.064h1.428c0.376,0,0.72-0.06,1.032-0.18c0.312-0.12,0.578-0.292,0.798-0.516
		c0.22-0.224,0.392-0.488,0.516-0.792c0.124-0.304,0.186-0.644,0.186-1.02V15.967z"/>
	<path fill="#FFFFFF" d="M33.958,20.167l-1.8-2.688h-1.452v2.688h-1.848v-8.4h3.84c1,0,1.778,0.244,2.334,0.732
		c0.556,0.488,0.834,1.168,0.834,2.04v0.024c0,0.68-0.166,1.234-0.498,1.662c-0.332,0.428-0.766,0.742-1.302,0.942l2.052,3H33.958z
		 M33.994,14.635c0-0.4-0.128-0.7-0.384-0.9c-0.256-0.2-0.612-0.3-1.068-0.3h-1.836v2.412h1.872c0.456,0,0.806-0.108,1.05-0.324
		s0.366-0.504,0.366-0.864V14.635z"/>
	<path fill="#FFFFFF" d="M43.546,20.167l-0.768-1.884h-3.552l-0.768,1.884h-1.884l3.6-8.46h1.704l3.6,8.46H43.546z M41.002,13.927
		l-1.116,2.724h2.232L41.002,13.927z"/>
	<path fill="#FFFFFF" d="M52.624,19.921c-0.596,0.26-1.278,0.39-2.046,0.39c-0.656,0-1.254-0.108-1.794-0.324
		c-0.54-0.216-1.004-0.516-1.392-0.9c-0.388-0.384-0.69-0.84-0.906-1.368c-0.216-0.528-0.324-1.104-0.324-1.728v-0.024
		c0-0.6,0.11-1.162,0.33-1.686c0.22-0.523,0.526-0.984,0.918-1.38s0.856-0.708,1.392-0.936s1.124-0.342,1.764-0.342
		c0.376,0,0.718,0.026,1.026,0.078c0.308,0.052,0.594,0.126,0.858,0.222c0.264,0.096,0.512,0.216,0.744,0.36
		c0.232,0.144,0.456,0.308,0.672,0.492l-1.164,1.404c-0.16-0.136-0.32-0.256-0.48-0.36c-0.16-0.104-0.326-0.192-0.498-0.264
		c-0.172-0.072-0.358-0.128-0.558-0.168c-0.2-0.04-0.42-0.06-0.66-0.06c-0.336,0-0.65,0.07-0.942,0.21s-0.548,0.329-0.768,0.565
		c-0.22,0.236-0.392,0.513-0.516,0.83c-0.124,0.317-0.186,0.656-0.186,1.017v0.024c0,0.385,0.062,0.74,0.186,1.064
		s0.3,0.607,0.528,0.848c0.228,0.241,0.496,0.427,0.804,0.56c0.308,0.132,0.65,0.198,1.026,0.198c0.688,0,1.268-0.169,1.74-0.508
		v-1.208h-1.86v-1.596h3.648v3.648C53.734,19.347,53.22,19.661,52.624,19.921z"/>
	<path fill="#FFFFFF" d="M64.907,18.793c-0.151,0.324-0.361,0.596-0.632,0.816c-0.271,0.22-0.593,0.388-0.968,0.504
		c-0.375,0.116-0.79,0.174-1.246,0.174c-0.64,0-1.268-0.11-1.884-0.33c-0.616-0.22-1.176-0.558-1.68-1.014l1.092-1.308
		c0.384,0.312,0.778,0.56,1.182,0.744c0.404,0.184,0.846,0.276,1.326,0.276c0.384,0,0.682-0.07,0.894-0.21
		c0.212-0.14,0.318-0.334,0.318-0.582v-0.024c0-0.12-0.022-0.226-0.066-0.318c-0.044-0.092-0.128-0.178-0.253-0.258
		c-0.124-0.08-0.297-0.16-0.517-0.24c-0.221-0.08-0.507-0.164-0.86-0.252c-0.425-0.104-0.81-0.22-1.155-0.348
		c-0.345-0.128-0.638-0.286-0.878-0.474s-0.427-0.422-0.559-0.702c-0.133-0.28-0.199-0.628-0.199-1.044v-0.024
		c0-0.384,0.071-0.73,0.214-1.038s0.344-0.574,0.602-0.798c0.258-0.224,0.567-0.396,0.926-0.516c0.358-0.12,0.754-0.18,1.186-0.18
		c0.616,0,1.182,0.092,1.698,0.276c0.516,0.184,0.99,0.448,1.422,0.792l-0.96,1.392c-0.376-0.256-0.744-0.458-1.104-0.606
		s-0.72-0.222-1.08-0.222c-0.36,0-0.63,0.07-0.81,0.21c-0.18,0.14-0.27,0.314-0.27,0.522v0.024c0,0.136,0.026,0.254,0.079,0.354
		c0.052,0.1,0.146,0.19,0.283,0.27c0.136,0.08,0.323,0.156,0.559,0.228c0.237,0.072,0.536,0.156,0.896,0.252
		c0.425,0.112,0.804,0.238,1.137,0.378s0.613,0.308,0.842,0.504c0.229,0.196,0.401,0.426,0.517,0.69s0.175,0.58,0.175,0.948v0.024
		C65.134,18.099,65.059,18.469,64.907,18.793z"/>
	<path fill="#FFFFFF" d="M66.502,20.167v-8.4h1.848v6.732h4.188v1.668H66.502z"/>
	<path fill="#FFFFFF" d="M73.773,20.167v-8.4h1.849v8.4H73.773z"/>
	<path fill="#FFFFFF" d="M84.897,17.623c-0.216,0.512-0.521,0.956-0.918,1.332c-0.396,0.376-0.868,0.672-1.416,0.888
		c-0.548,0.216-1.149,0.324-1.806,0.324h-3.276v-8.4h3.276c0.656,0,1.258,0.106,1.806,0.318s1.021,0.506,1.416,0.882
		c0.396,0.376,0.702,0.818,0.918,1.326c0.217,0.508,0.324,1.058,0.324,1.65v0.024C85.222,16.559,85.114,17.111,84.897,17.623z
		 M83.29,15.967c0-0.368-0.062-0.708-0.187-1.02s-0.296-0.58-0.516-0.804s-0.486-0.398-0.798-0.522
		c-0.312-0.124-0.656-0.186-1.032-0.186H79.33v5.064h1.428c0.376,0,0.72-0.06,1.032-0.18c0.312-0.12,0.578-0.292,0.798-0.516
		c0.22-0.224,0.392-0.488,0.516-0.792c0.124-0.304,0.187-0.644,0.187-1.02V15.967z"/>
	<path fill="#FFFFFF" d="M86.626,20.167v-8.4h6.324v1.644h-4.5v1.704h3.96v1.644h-3.96v1.764h4.56v1.644H86.626z"/>
	<path fill="#FFFFFF" d="M99.525,20.167l-1.8-2.688h-1.452v2.688h-1.848v-8.4h3.84c1,0,1.778,0.244,2.334,0.732
		s0.834,1.168,0.834,2.04v0.024c0,0.68-0.166,1.234-0.498,1.662c-0.332,0.428-0.766,0.742-1.302,0.942l2.052,3H99.525z
		 M99.562,14.635c0-0.4-0.128-0.7-0.384-0.9c-0.256-0.2-0.612-0.3-1.068-0.3h-1.836v2.412h1.872c0.456,0,0.806-0.108,1.05-0.324
		s0.366-0.504,0.366-0.864V14.635z"/>
	<path fill="#FFFFFF" d="M108.707,18.793c-0.151,0.324-0.361,0.596-0.632,0.816c-0.271,0.22-0.593,0.388-0.968,0.504
		c-0.374,0.116-0.79,0.174-1.246,0.174c-0.64,0-1.268-0.11-1.884-0.33c-0.616-0.22-1.176-0.558-1.68-1.014l1.092-1.308
		c0.384,0.312,0.778,0.56,1.182,0.744c0.404,0.184,0.847,0.276,1.326,0.276c0.385,0,0.683-0.07,0.895-0.21
		c0.212-0.14,0.317-0.334,0.317-0.582v-0.024c0-0.12-0.021-0.226-0.065-0.318c-0.045-0.092-0.129-0.178-0.253-0.258
		s-0.297-0.16-0.518-0.24c-0.221-0.08-0.507-0.164-0.86-0.252c-0.425-0.104-0.81-0.22-1.155-0.348
		c-0.345-0.128-0.638-0.286-0.878-0.474c-0.241-0.188-0.427-0.422-0.56-0.702c-0.133-0.28-0.198-0.628-0.198-1.044v-0.024
		c0-0.384,0.071-0.73,0.214-1.038c0.144-0.308,0.344-0.574,0.603-0.798c0.258-0.224,0.566-0.396,0.926-0.516
		c0.358-0.12,0.754-0.18,1.186-0.18c0.616,0,1.182,0.092,1.698,0.276c0.516,0.184,0.989,0.448,1.422,0.792l-0.96,1.392
		c-0.376-0.256-0.744-0.458-1.104-0.606c-0.359-0.148-0.72-0.222-1.08-0.222c-0.359,0-0.63,0.07-0.81,0.21
		c-0.18,0.14-0.271,0.314-0.271,0.522v0.024c0,0.136,0.026,0.254,0.079,0.354c0.052,0.1,0.146,0.19,0.282,0.27
		s0.323,0.156,0.56,0.228c0.236,0.072,0.535,0.156,0.896,0.252c0.425,0.112,0.804,0.238,1.137,0.378s0.613,0.308,0.843,0.504
		c0.229,0.196,0.4,0.426,0.517,0.69s0.175,0.58,0.175,0.948v0.024C108.934,18.099,108.858,18.469,108.707,18.793z"/>
</g>
<g>
	<path fill="none" d="M61.364,62.178v21.915c0.462,2.771,0.102,6.298-0.007,7.212c-0.006,0.048-0.032,0.087-0.044,0.133
		c-0.017,0.066-0.033,0.13-0.062,0.189c-0.029,0.057-0.066,0.105-0.104,0.155c-0.04,0.052-0.077,0.102-0.126,0.146
		c-0.048,0.043-0.102,0.073-0.157,0.106c-0.055,0.032-0.106,0.064-0.167,0.086c-0.064,0.023-0.13,0.031-0.199,0.04
		c-0.046,0.006-0.086,0.027-0.134,0.027c-0.02,0-0.038-0.01-0.058-0.012c-0.021-0.001-0.039,0.007-0.06,0.005
		c-0.048-0.006-0.087-0.032-0.133-0.044c-0.066-0.017-0.13-0.033-0.19-0.062c-0.057-0.029-0.105-0.066-0.155-0.104
		c-0.052-0.04-0.102-0.077-0.146-0.125c-0.042-0.047-0.072-0.101-0.105-0.155c-0.033-0.055-0.065-0.108-0.087-0.17
		c-0.022-0.063-0.03-0.128-0.039-0.195c-0.007-0.047-0.028-0.088-0.028-0.137v-6.974c-0.132-0.745-0.326-1.337-0.604-1.65
		c-0.117-0.132-0.187-0.132-0.238-0.132c-0.845,0-1.517,0.428-2.052,1.307c-1.576,2.585-1.287,7.841-0.683,9.013
		c1.091,2.116,2.821,4.238,4.805,6.593l0.473,0.565c2.256,2.711,6.951,8.351,11.125,8.351c4.638,0,6.963-0.803,9.217-3.181
		c2.729-2.881,4.295-5.716,4.295-7.778V76.458c-0.113-0.432-0.692-2.344-2.091-2.344c-1.505,0-2.091,0.624-2.091,2.225v6.449
		c0,0.553-0.447,1-1,1s-1-0.447-1-1v-6.449c0-0.823,0.156-1.524,0.425-2.12c-0.22-0.673-0.896-2.254-2.382-2.254
		c-1.354,0-2.229,0.451-2.583,1.317v0.324c0,0.194-0.069,0.366-0.165,0.519c-0.003,0.056-0.014,0.105-0.014,0.163v8.77
		c0,0.553-0.447,1-1,1s-1-0.447-1-1v-8.77c0-0.31,0.038-0.622,0.096-0.93c-0.191-0.649-0.737-1.843-2.187-1.843
		c-1.778,0-2.383,2.139-2.493,2.602v8.94c0,0.553-0.447,1-1,1s-1-0.447-1-1v-1.012v-8.037V61.694
		C65.227,62.11,64.141,62.34,63,62.34C62.44,62.34,61.893,62.283,61.364,62.178z"/>
</g>
</svg>
