<?xml version="1.0" encoding="utf-8"?>
<!-- Generator: Adobe Illustrator 17.0.0, SVG Export Plug-In . SVG Version: 6.00 Build 0)  -->
<!DOCTYPE svg PUBLIC "-//W3C//DTD SVG 1.1//EN" "http://www.w3.org/Graphics/SVG/1.1/DTD/svg11.dtd">
<svg version="1.1" id="Layer_1" xmlns="http://www.w3.org/2000/svg" xmlns:xlink="http://www.w3.org/1999/xlink" x="0px" y="0px"
	 width="35px" height="35px" viewBox="0 0 35 35" enable-background="new 0 0 35 35" xml:space="preserve">
<path fill="#FFFFFF" d="M26.909,9.671c-0.126-0.617-0.315-1.225-0.56-1.805c-0.241-0.57-0.539-1.118-0.885-1.631
	c-0.343-0.508-0.738-0.987-1.172-1.421c-0.435-0.435-0.913-0.829-1.421-1.173c-0.513-0.348-1.062-0.645-1.631-0.886
	c-0.58-0.244-1.188-0.434-1.805-0.559C18.802,2.066,18.151,2,17.501,2c-0.651,0-1.302,0.066-1.935,0.196
	c-0.617,0.125-1.224,0.315-1.805,0.559c-0.569,0.241-1.118,0.539-1.632,0.886c-0.508,0.343-0.987,0.737-1.421,1.173
	C10.274,5.248,9.88,5.726,9.537,6.234C9.19,6.747,8.891,7.296,8.651,7.865C8.406,8.446,8.217,9.054,8.091,9.671
	c-0.129,0.632-0.195,1.283-0.195,1.933c0,0.652,0.066,1.303,0.195,1.935c0.127,0.617,0.315,1.225,0.561,1.805
	c0.241,0.569,0.539,1.119,0.885,1.633c0.343,0.508,0.737,0.986,1.172,1.421c0.435,0.434,0.913,0.828,1.421,1.172
	c0.514,0.346,1.063,0.645,1.632,0.885c0.58,0.246,1.188,0.433,1.805,0.56c0.633,0.131,1.283,0.196,1.935,0.196
	c0.651,0,1.301-0.065,1.933-0.196c0.617-0.127,1.225-0.314,1.805-0.56c0.569-0.241,1.118-0.539,1.631-0.885
	c0.508-0.344,0.987-0.737,1.421-1.172c0.434-0.435,0.829-0.912,1.172-1.421c0.347-0.513,0.645-1.063,0.885-1.633
	c0.245-0.58,0.434-1.188,0.56-1.805c0.13-0.632,0.196-1.283,0.196-1.935C27.105,10.954,27.039,10.302,26.909,9.671z M25.7,11.523
	c-0.119-0.026-2.895-0.623-5.713-0.269c-0.057-0.14-0.116-0.281-0.177-0.423c-0.171-0.401-0.354-0.799-0.545-1.19
	c3.239-1.322,4.554-3.224,4.57-3.246C24.985,7.791,25.681,9.576,25.7,11.523z M22.917,5.448c-0.02,0.032-1.188,1.81-4.284,2.97
	c-1.402-2.576-2.943-4.623-3.066-4.785c0.62-0.15,1.267-0.232,1.933-0.232C19.577,3.402,21.472,4.176,22.917,5.448z M15.536,3.64
	c-0.001,0.001-0.001,0.001-0.001,0.001s-0.01,0.003-0.025,0.005C15.517,3.645,15.526,3.643,15.536,3.64z M14,4.186
	c0.109,0.146,1.626,2.203,3.046,4.726C13.108,9.959,9.69,9.917,9.473,9.914C10.006,7.373,11.713,5.266,14,4.186z M9.297,11.604
	c0-0.087,0.004-0.173,0.007-0.259c0.145,0.003,4.198,0.095,8.421-1.169c0.236,0.46,0.46,0.927,0.666,1.394
	c-0.108,0.031-0.216,0.063-0.323,0.098c-4.427,1.43-6.672,5.414-6.672,5.414s0.003,0.003,0.003,0.004
	C10.092,15.633,9.297,13.711,9.297,11.604z M17.5,19.807c-1.986,0-3.806-0.706-5.225-1.88c0.108,0.087,0.183,0.144,0.183,0.144
	s1.573-3.43,6.437-5.124c0.018-0.007,0.036-0.012,0.054-0.018c1.154,2.999,1.631,5.511,1.752,6.228
	C19.718,19.576,18.636,19.807,17.5,19.807z M22.084,18.408c-0.084-0.495-0.521-2.903-1.597-5.859
	c2.648-0.423,4.943,0.303,5.112,0.358C25.233,15.192,23.925,17.164,22.084,18.408z"/>
</svg>
