<?xml version="1.0" encoding="utf-8"?>
<!-- Generator: Adobe Illustrator 17.0.0, SVG Export Plug-In . SVG Version: 6.00 Build 0)  -->
<!DOCTYPE svg PUBLIC "-//W3C//DTD SVG 1.1//EN" "http://www.w3.org/Graphics/SVG/1.1/DTD/svg11.dtd">
<svg version="1.1" id="Layer_1" xmlns="http://www.w3.org/2000/svg" xmlns:xlink="http://www.w3.org/1999/xlink" x="0px" y="0px"
	 width="35px" height="35px" viewBox="0 0 35 35" enable-background="new 0 0 35 35" xml:space="preserve">
<path fill="#FFFFFF" d="M23.161,7.365h-3.599V5.004c0-0.887,0.587-1.094,1.001-1.094c0.413,0,2.54,0,2.54,0V0.014L19.605,0
	c-3.884,0-4.767,2.907-4.767,4.767v2.598h-2.246v4.016h2.246c0,5.154,0,11.365,0,11.365h4.725c0,0,0-6.272,0-11.365h3.187
	L23.161,7.365z"/>
<path fill="#FFFFFF" d="M59.591,10.131c-0.126-0.617-0.315-1.225-0.56-1.805c-0.241-0.57-0.539-1.118-0.885-1.631
	c-0.343-0.508-0.738-0.987-1.172-1.421c-0.435-0.435-0.913-0.829-1.421-1.173c-0.513-0.348-1.062-0.645-1.631-0.886
	c-0.58-0.244-1.188-0.434-1.805-0.559c-0.632-0.13-1.283-0.196-1.933-0.196c-0.651,0-1.302,0.066-1.935,0.196
	c-0.617,0.125-1.224,0.315-1.805,0.559c-0.569,0.241-1.118,0.539-1.632,0.886c-0.508,0.343-0.987,0.737-1.421,1.173
	c-0.434,0.434-0.828,0.912-1.172,1.421c-0.346,0.513-0.645,1.062-0.885,1.631c-0.245,0.581-0.434,1.188-0.561,1.805
	c-0.129,0.632-0.195,1.283-0.195,1.933c0,0.652,0.066,1.303,0.195,1.935c0.127,0.617,0.315,1.225,0.561,1.805
	c0.241,0.569,0.539,1.119,0.885,1.633c0.343,0.508,0.737,0.986,1.172,1.42c0.435,0.434,0.913,0.828,1.421,1.172
	c0.514,0.346,1.063,0.645,1.632,0.885c0.58,0.246,1.188,0.433,1.805,0.56c0.633,0.131,1.283,0.196,1.935,0.196
	c0.651,0,1.301-0.065,1.933-0.196c0.617-0.127,1.225-0.314,1.805-0.56c0.569-0.241,1.118-0.539,1.631-0.885
	c0.508-0.344,0.987-0.737,1.421-1.172c0.434-0.435,0.829-0.912,1.172-1.42c0.347-0.513,0.645-1.063,0.885-1.633
	c0.245-0.58,0.434-1.188,0.56-1.805c0.13-0.632,0.196-1.283,0.196-1.935C59.786,11.414,59.72,10.762,59.591,10.131z M58.382,11.983
	c-0.119-0.026-2.895-0.623-5.713-0.269c-0.057-0.14-0.116-0.281-0.177-0.423c-0.171-0.401-0.354-0.799-0.545-1.19
	c3.239-1.322,4.554-3.224,4.57-3.246C57.666,8.251,58.363,10.036,58.382,11.983z M55.599,5.908c-0.02,0.032-1.188,1.81-4.284,2.97
	c-1.402-2.576-2.943-4.623-3.066-4.785c0.62-0.15,1.267-0.232,1.933-0.232C52.258,3.862,54.154,4.636,55.599,5.908z M48.217,4.1
	c-0.001,0.001-0.001,0.001-0.001,0.001s-0.01,0.003-0.025,0.005C48.199,4.105,48.208,4.103,48.217,4.1z M46.682,4.646
	c0.109,0.146,1.626,2.203,3.046,4.726c-3.939,1.047-7.356,1.006-7.573,1.002C42.688,7.833,44.394,5.726,46.682,4.646z
	 M41.979,12.063c0-0.087,0.004-0.173,0.007-0.259c0.145,0.003,4.198,0.095,8.421-1.169c0.236,0.46,0.46,0.927,0.666,1.394
	c-0.108,0.031-0.216,0.063-0.323,0.098c-4.427,1.43-6.672,5.414-6.672,5.414s0.003,0.003,0.003,0.004
	C42.774,16.093,41.979,14.171,41.979,12.063z M50.182,20.267c-1.986,0-3.806-0.706-5.225-1.88c0.108,0.087,0.183,0.144,0.183,0.144
	s1.573-3.43,6.437-5.124c0.018-0.007,0.036-0.012,0.054-0.018c1.154,2.999,1.631,5.511,1.752,6.228
	C52.4,20.036,51.318,20.267,50.182,20.267z M54.765,18.868c-0.084-0.495-0.521-2.903-1.597-5.859
	c2.648-0.423,4.943,0.303,5.112,0.358C57.915,15.652,56.607,17.624,54.765,18.868z"/>
<path fill="#FFFFFF" d="M-14.515,5.118c-0.014-0.007-0.029-0.023-0.042-0.037c-0.846-0.754-1.841-1.114-2.985-1.071l-0.035-0.078
	c0.007-0.007,0.014-0.007,0.021-0.007c1.037-0.227,1.651-0.46,1.834-0.713c0.064-0.205-0.014-0.317-0.24-0.345
	c-0.522,0.063-1.002,0.169-1.432,0.331c0.544-0.331,0.755-0.564,0.635-0.684c-0.536,0.014-1.114,0.276-1.722,0.791
	c0.226-0.367,0.311-0.565,0.254-0.6c-0.289,0.191-0.544,0.395-0.762,0.613c-0.459,0.487-0.826,0.939-1.108,1.348l-0.014,0.035
	c-0.726,1.122-1.235,2.25-1.538,3.401l-0.112,0.085l-0.021,0.02c-0.438-0.522-0.96-0.959-1.588-1.313
	c-0.741-0.458-1.609-0.896-2.611-1.319c-1.094-0.536-2.202-0.981-3.323-1.327c-0.007,1.193,0.607,2.145,1.828,2.836v0.021
	c-0.431-0.008-0.847,0.056-1.249,0.177c0.078,1.107,0.903,1.869,2.47,2.292l-0.007,0.021c-0.613-0.035-1.122,0.17-1.516,0.593
	c0.515,0.96,1.425,1.418,2.745,1.383c-0.262,0.127-0.466,0.267-0.6,0.423c-0.24,0.24-0.318,0.523-0.24,0.846
	c0.282,0.487,0.79,0.712,1.538,0.678l0,0l0.042,0.049c-0.007,0.007-0.014,0.014-0.021,0.021c-1.291,1.27-2.85,1.841-4.678,1.722
	l-0.028,0.014c-1.114-0.008-2.307-0.515-3.598-1.531c1.298,1.777,3.02,3.062,5.151,3.867c2.441,0.769,4.883,0.825,7.317,0.169h0.042
	c2.364-0.649,4.367-1.983,6.018-4c0.762-1.058,1.242-2.066,1.433-3.034c1.235,0.042,2.123-0.296,2.674-1.015l-0.014-0.022
	c-0.41,0.141-1.214,0.099-2.406-0.134V9.498c0-0.006,0-0.006,0.007,0c1.305-0.141,2.074-0.542,2.322-1.206
	c-0.911,0.339-1.807,0.345-2.695,0.029C-12.934,7.149-13.513,6.084-14.515,5.118z"/>
</svg>
