<?xml version="1.0" encoding="utf-8"?>
<!-- Generator: Adobe Illustrator 17.0.0, SVG Export Plug-In . SVG Version: 6.00 Build 0)  -->
<!DOCTYPE svg PUBLIC "-//W3C//DTD SVG 1.1//EN" "http://www.w3.org/Graphics/SVG/1.1/DTD/svg11.dtd">
<svg version="1.1" id="Layer_1" xmlns="http://www.w3.org/2000/svg" xmlns:xlink="http://www.w3.org/1999/xlink" x="0px" y="0px"
	 width="50.183px" height="51.085px" viewBox="0 0 50.183 51.085" enable-background="new 0 0 50.183 51.085" xml:space="preserve">
<g>
	<path fill="#FFFFFF" d="M5.276,43.046l-0.558-1.368H2.14l-0.558,1.368H0.215l2.613-6.141h1.237l2.613,6.141H5.276z M3.429,38.517
		l-0.81,1.977h1.62L3.429,38.517z"/>
	<path fill="#FFFFFF" d="M11.26,43.046v-2.448H8.786v2.448H7.445v-6.097h1.341v2.413h2.474v-2.413h1.341v6.097H11.26z"/>
	<path fill="#FFFFFF" d="M18.167,43.046l-2.953-3.876v3.876H13.89v-6.097h1.237l2.857,3.754v-3.754h1.324v6.097H18.167z"/>
	<path fill="#FFFFFF" d="M24.84,42.049c-0.109,0.235-0.262,0.433-0.458,0.592c-0.196,0.16-0.431,0.282-0.702,0.366
		c-0.272,0.084-0.574,0.126-0.905,0.126c-0.465,0-0.92-0.08-1.368-0.24c-0.447-0.16-0.854-0.405-1.219-0.736l0.793-0.949
		c0.279,0.226,0.565,0.406,0.858,0.54c0.293,0.134,0.614,0.2,0.963,0.2c0.279,0,0.495-0.051,0.649-0.152
		c0.154-0.101,0.231-0.242,0.231-0.422v-0.017c0-0.087-0.016-0.164-0.048-0.231c-0.032-0.066-0.093-0.129-0.184-0.187
		c-0.09-0.058-0.216-0.116-0.375-0.174c-0.161-0.058-0.368-0.119-0.625-0.183c-0.308-0.075-0.588-0.16-0.838-0.253
		c-0.25-0.093-0.463-0.207-0.638-0.344c-0.175-0.136-0.31-0.306-0.406-0.509c-0.096-0.203-0.144-0.456-0.144-0.758V38.7
		c0-0.279,0.052-0.53,0.155-0.753c0.104-0.224,0.25-0.417,0.437-0.579c0.187-0.163,0.411-0.287,0.672-0.375
		c0.26-0.087,0.547-0.131,0.861-0.131c0.447,0,0.858,0.067,1.233,0.201s0.718,0.325,1.032,0.575l-0.697,1.01
		c-0.273-0.186-0.54-0.332-0.801-0.44c-0.262-0.107-0.523-0.161-0.784-0.161c-0.261,0-0.457,0.051-0.588,0.152
		c-0.131,0.101-0.196,0.228-0.196,0.379v0.017c0,0.099,0.019,0.184,0.057,0.257c0.038,0.072,0.106,0.138,0.205,0.196
		c0.099,0.058,0.234,0.113,0.406,0.165c0.172,0.052,0.389,0.113,0.651,0.183c0.308,0.081,0.583,0.173,0.825,0.274
		c0.241,0.102,0.445,0.224,0.611,0.366c0.166,0.142,0.291,0.309,0.376,0.501c0.084,0.192,0.126,0.421,0.126,0.688v0.017
		C25.004,41.545,24.95,41.813,24.84,42.049z"/>
	<path fill="#FFFFFF" d="M31.964,41.221c-0.163,0.381-0.388,0.714-0.675,1.002s-0.63,0.514-1.028,0.68
		c-0.398,0.165-0.832,0.248-1.302,0.248c-0.47,0-0.903-0.083-1.298-0.248c-0.395-0.166-0.736-0.389-1.023-0.671
		s-0.511-0.613-0.671-0.993c-0.16-0.38-0.239-0.788-0.239-1.224v-0.017c0-0.436,0.081-0.843,0.244-1.224
		c0.162-0.38,0.388-0.715,0.675-1.002c0.287-0.287,0.63-0.514,1.028-0.68c0.398-0.165,0.832-0.248,1.302-0.248
		c0.471,0,0.903,0.083,1.298,0.248c0.395,0.166,0.736,0.389,1.023,0.671c0.287,0.282,0.511,0.613,0.67,0.993
		c0.16,0.38,0.24,0.788,0.24,1.224v0.017C32.208,40.433,32.127,40.841,31.964,41.221z M30.805,39.997
		c0-0.262-0.045-0.508-0.135-0.74c-0.09-0.233-0.218-0.436-0.383-0.61c-0.165-0.174-0.361-0.312-0.588-0.414
		c-0.227-0.102-0.474-0.152-0.741-0.152c-0.273,0-0.521,0.049-0.744,0.148c-0.224,0.099-0.415,0.235-0.575,0.41
		c-0.16,0.174-0.285,0.376-0.374,0.605c-0.09,0.23-0.135,0.474-0.135,0.736v0.017c0,0.261,0.045,0.508,0.135,0.74
		c0.09,0.233,0.218,0.436,0.383,0.61c0.165,0.174,0.36,0.312,0.583,0.414c0.223,0.102,0.471,0.152,0.744,0.152
		c0.267,0,0.514-0.049,0.741-0.148c0.226-0.099,0.42-0.236,0.579-0.41c0.16-0.174,0.285-0.376,0.374-0.605
		c0.09-0.229,0.135-0.475,0.135-0.736V39.997z"/>
	<path fill="#FFFFFF" d="M37.042,43.046v-2.448h-2.474v2.448h-1.341v-6.097h1.341v2.413h2.474v-2.413h1.341v6.097H37.042z"/>
	<path fill="#FFFFFF" d="M39.673,43.046v-6.097h4.59v1.193h-3.266v1.237h2.874v1.193h-2.874v1.28h3.31v1.193H39.673z"/>
	<path fill="#FFFFFF" d="M45.334,43.046v-6.097h4.59v1.193h-3.266v1.237h2.874v1.193h-2.874v1.28h3.31v1.193H45.334z"/>
</g>
<g opacity="0.9">
	<path fill="#FFFFFF" d="M16.044,50.485h-0.819l-0.966-2.802l-0.967,2.802h-0.819l-1.462-4.313h1.009l0.887,2.9l0.96-2.912h0.808
		l0.96,2.912l0.887-2.9h0.985L16.044,50.485z"/>
	<path fill="#FFFFFF" d="M18.081,50.454v-4.282h3.224v0.838h-2.294v0.868h2.018v0.838h-2.018v0.899h2.324v0.838H18.081z"/>
	<path fill="#FFFFFF" d="M25.578,49.794c-0.075,0.147-0.184,0.269-0.324,0.367c-0.141,0.098-0.31,0.171-0.507,0.22
		c-0.197,0.049-0.416,0.073-0.656,0.073h-2.034v-4.282h1.985c0.44,0,0.785,0.1,1.035,0.3c0.25,0.2,0.376,0.469,0.376,0.808v0.012
		c0,0.123-0.015,0.231-0.046,0.325c-0.031,0.094-0.071,0.178-0.122,0.254c-0.051,0.075-0.109,0.142-0.176,0.199
		c-0.067,0.057-0.138,0.106-0.216,0.147c0.247,0.094,0.443,0.221,0.585,0.382c0.142,0.161,0.213,0.385,0.213,0.67v0.012
		C25.691,49.475,25.653,49.647,25.578,49.794z M24.523,47.438c0-0.143-0.053-0.252-0.159-0.327
		c-0.106-0.075-0.259-0.113-0.459-0.113h-0.93v0.905h0.868c0.208,0,0.374-0.036,0.496-0.107c0.122-0.071,0.184-0.187,0.184-0.345
		V47.438z M24.761,49.151c0-0.143-0.055-0.256-0.165-0.339c-0.11-0.084-0.287-0.126-0.532-0.126h-1.089v0.942h1.119
		c0.208,0,0.371-0.037,0.489-0.113c0.118-0.075,0.178-0.193,0.178-0.352V49.151z"/>
	<path fill="#FFFFFF" d="M29.332,49.754c-0.077,0.165-0.184,0.304-0.322,0.416c-0.138,0.112-0.302,0.198-0.493,0.257
		c-0.191,0.059-0.403,0.089-0.635,0.089c-0.326,0-0.647-0.056-0.96-0.168c-0.314-0.112-0.599-0.285-0.856-0.517l0.557-0.667
		c0.196,0.159,0.397,0.286,0.603,0.379c0.206,0.094,0.431,0.141,0.676,0.141c0.196,0,0.348-0.035,0.456-0.107
		c0.108-0.071,0.162-0.17,0.162-0.297v-0.012c0-0.061-0.011-0.115-0.034-0.162c-0.023-0.047-0.066-0.091-0.129-0.132
		c-0.063-0.04-0.151-0.081-0.264-0.122c-0.112-0.041-0.259-0.083-0.439-0.129c-0.217-0.053-0.413-0.112-0.589-0.177
		c-0.176-0.065-0.325-0.146-0.448-0.242c-0.123-0.095-0.218-0.215-0.285-0.358c-0.068-0.143-0.101-0.32-0.101-0.532v-0.012
		c0-0.196,0.037-0.372,0.109-0.529c0.073-0.157,0.175-0.293,0.307-0.407c0.132-0.114,0.289-0.201,0.471-0.263
		c0.183-0.061,0.385-0.092,0.605-0.092c0.314,0,0.602,0.047,0.865,0.141c0.263,0.094,0.505,0.228,0.725,0.404l-0.489,0.71
		c-0.192-0.131-0.379-0.233-0.563-0.309c-0.184-0.075-0.367-0.113-0.551-0.113s-0.321,0.036-0.413,0.107
		c-0.092,0.072-0.138,0.16-0.138,0.266v0.012c0,0.069,0.014,0.129,0.04,0.18c0.026,0.051,0.075,0.097,0.144,0.138
		c0.07,0.041,0.165,0.08,0.285,0.116c0.121,0.037,0.273,0.08,0.457,0.129c0.217,0.057,0.41,0.121,0.58,0.193
		c0.17,0.072,0.313,0.157,0.429,0.257c0.116,0.1,0.204,0.217,0.264,0.352c0.059,0.135,0.089,0.296,0.089,0.483v0.012
		C29.447,49.4,29.409,49.589,29.332,49.754z"/>
	<path fill="#FFFFFF" d="M30.187,50.454v-4.282h0.942v4.282H30.187z"/>
	<path fill="#FFFFFF" d="M34.016,47.041v3.413h-0.942v-3.413h-1.303v-0.869h3.548v0.869H34.016z"/>
	<path fill="#FFFFFF" d="M35.919,50.454v-4.282h3.224v0.838h-2.294v0.868h2.018v0.838h-2.018v0.899h2.324v0.838H35.919z"/>
</g>
<g>
	<path fill="#FFFFFF" d="M50.182,14.074C50.166,6.313,43.84,0,36.08,0c-1.427,0-2.836,0.213-4.187,0.632
		c-1.757,0.545-3.341,1.407-4.704,2.508c1.34,1.646,2.382,3.543,3.049,5.608C31.69,7.177,33.771,6.19,36.08,6.19
		c4.363,0,7.913,3.55,7.913,7.913v9.851c0.199,0.464,1.886,4.079,6.19,4.215V14.093C50.182,14.087,50.182,14.08,50.182,14.074z"/>
</g>
<path fill="#FFFFFF" d="M14.058,0C6.281,0-0.045,6.327-0.045,14.103c0,7.777,6.327,14.103,14.103,14.103
	c1.427,0,2.835-0.213,4.187-0.632c1.539-0.478,2.978-1.216,4.279-2.194c0.109-0.082,0.264-0.062,0.348,0.047
	c0.944,1.215,2.619,2.657,5.289,2.742V14.093c0-0.007-0.001-0.013-0.001-0.02C28.144,6.313,21.818,0,14.058,0z M14.058,22.016
	c-4.363,0-7.913-3.55-7.913-7.913s3.55-7.913,7.913-7.913s7.913,3.55,7.913,7.913S18.421,22.016,14.058,22.016z"/>
</svg>
