<?xml version="1.0" encoding="utf-8"?>
<!-- Generator: Adobe Illustrator 17.0.0, SVG Export Plug-In . SVG Version: 6.00 Build 0)  -->
<!DOCTYPE svg PUBLIC "-//W3C//DTD SVG 1.1//EN" "http://www.w3.org/Graphics/SVG/1.1/DTD/svg11.dtd">
<svg version="1.1" id="Layer_1" xmlns="http://www.w3.org/2000/svg" xmlns:xlink="http://www.w3.org/1999/xlink" x="0px" y="0px"
	 width="35px" height="15.375px" viewBox="0 0 35 15.375" enable-background="new 0 0 35 15.375" xml:space="preserve">
<g>
	<g>
		
			<line fill="none" stroke="#1D1D1B" stroke-width="0.6" stroke-linejoin="round" stroke-miterlimit="10" x1="56.027" y1="5.187" x2="63.743" y2="5.187"/>
		
			<circle fill="#FFFFFF" stroke="#202020" stroke-width="0.6" stroke-linejoin="round" stroke-miterlimit="10" cx="64.008" cy="5.187" r="0.771"/>
		
			<circle fill="#FFFFFF" stroke="#202020" stroke-width="0.6" stroke-linejoin="round" stroke-miterlimit="10" cx="56.027" cy="5.187" r="0.771"/>
	</g>
	<path fill="none" stroke="#202020" stroke-width="0.6" stroke-linejoin="round" stroke-miterlimit="10" d="M55.172,10.405
		c0-2.667,2.162-4.828,4.828-4.828s4.828,2.162,4.828,4.828"/>
	
		<rect x="59.089" y="4.631" fill="#EF293A" stroke="#202020" stroke-width="0.6" stroke-linejoin="round" stroke-miterlimit="10" width="1.858" height="1.858"/>
	
		<rect x="54.243" y="9.476" fill="#EF293A" stroke="#202020" stroke-width="0.6" stroke-linejoin="round" stroke-miterlimit="10" width="1.858" height="1.858"/>
	
		<rect x="63.899" y="9.476" fill="#EF293A" stroke="#202020" stroke-width="0.6" stroke-linejoin="round" stroke-miterlimit="10" width="1.858" height="1.858"/>
</g>
<g id="_x38__20_">
	<g>
		<path fill="#FFFFFF" d="M522.5,161.375c0.553,0,1-0.447,1-1v-12c0-0.552-0.447-1-1-1c-0.553,0-1,0.448-1,1v12
			C521.5,160.928,521.947,161.375,522.5,161.375z M528.5,161.375c0.553,0,1-0.447,1-1v-9c0-0.552-0.447-1-1-1c-0.553,0-1,0.448-1,1
			v9C527.5,160.928,527.947,161.375,528.5,161.375z M516.5,161.375c0.553,0,1-0.447,1-1v-4c0-0.552-0.447-1-1-1
			c-0.553,0-1,0.448-1,1v4C515.5,160.928,515.947,161.375,516.5,161.375z M506.5,141.375v2h2c0,1.623,0,19,0,19c0,2.37,1.644,4,4,4
			h6l-4,7l3.012-0.013l3.988-6.987h2l3.988,6.987l3.012,0.013l-4-7h6c2.356,0,4-1.63,4-4c0,0,0-17.268,0-19h2v-2H506.5z
			 M534.5,162.375c0,1.229-0.794,2-2,2h-20c-1.206,0-2-0.771-2-2c0,0-0.015-17.743-0.015-19.01h24.029
			C534.515,145.382,534.5,162.375,534.5,162.375z"/>
	</g>
</g>
<circle fill="#EF293A" stroke="#202020" stroke-miterlimit="10" cx="-56.667" cy="-5.116" r="7.417"/>
<circle fill="#FFFFFF" stroke="#202020" stroke-miterlimit="10" cx="-37.333" cy="-5.116" r="7.417"/>
<circle fill="none" stroke="#202020" stroke-miterlimit="10" cx="-37.333" cy="12.718" r="7.417"/>
<g>
	<path fill="none" stroke="#202020" stroke-width="0.6" stroke-miterlimit="10" d="M20.723,12.618c0,0.604-0.49,1.095-1.095,1.095
		h-4.257c-0.604,0-1.095-0.49-1.095-1.095V3.132c0-0.604,0.49-1.095,1.095-1.095h4.257c0.604,0,1.095,0.49,1.095,1.095V12.618z"/>
	<path fill="none" stroke="#202020" stroke-width="0.6" stroke-miterlimit="10" d="M19.738,10.229c0,0.179-0.143,0.325-0.32,0.325
		h-3.836c-0.177,0-0.32-0.146-0.32-0.325V4.183c0-0.179,0.143-0.325,0.32-0.325h3.836c0.177,0,0.32,0.146,0.32,0.325V10.229z"/>
	<circle fill="#EF293A" stroke="#202020" stroke-width="0.6" stroke-miterlimit="10" cx="17.5" cy="12.156" r="0.685"/>
	
		<line fill="none" stroke="#202020" stroke-width="0.6" stroke-linecap="round" stroke-miterlimit="10" x1="17.257" y1="2.937" x2="17.743" y2="2.937"/>
</g>
<circle fill="#EF293A" stroke="#202020" stroke-width="2" stroke-miterlimit="10" cx="-39.167" cy="-28.495" r="5.9"/>
<g>
	<path fill="none" stroke="#202020" stroke-width="0.6" stroke-linejoin="round" stroke-miterlimit="10" d="M106.061,3.257v6.55
		c0,0.434-0.352,0.786-0.786,0.786h-6.55c-0.434,0-0.786-0.352-0.786-0.786v-6.55"/>
	
		<line fill="none" stroke="#202020" stroke-width="0.6" stroke-linecap="round" stroke-linejoin="round" stroke-miterlimit="10" x1="97.317" y1="3.257" x2="106.683" y2="3.257"/>
	<g>
		
			<line fill="none" stroke="#202020" stroke-width="0.6" stroke-linecap="round" stroke-linejoin="round" stroke-miterlimit="10" x1="101.951" y1="10.724" x2="100.573" y2="12.493"/>
		
			<line fill="none" stroke="#202020" stroke-width="0.6" stroke-linecap="round" stroke-linejoin="round" stroke-miterlimit="10" x1="102.049" y1="10.724" x2="103.427" y2="12.493"/>
	</g>
	<g>
		
			<circle fill="#FFFFFF" stroke="#202020" stroke-width="0.6" stroke-linejoin="round" stroke-miterlimit="10" cx="102.033" cy="7.123" r="2.005"/>
		<path fill="#EF293A" stroke="#202020" stroke-width="0.6" stroke-linejoin="round" stroke-miterlimit="10" d="M104.434,7.123
			h-2.401V4.722C103.359,4.722,104.434,5.797,104.434,7.123z"/>
	</g>
</g>
<g>
	<g>
		
			<line fill="none" stroke="#1D1D1B" stroke-width="2" stroke-linejoin="round" stroke-miterlimit="10" x1="50.339" y1="-33.829" x2="69.103" y2="-33.829"/>
		
			<circle fill="#FFFFFF" stroke="#202020" stroke-width="2" stroke-linejoin="round" stroke-miterlimit="10" cx="69.746" cy="-33.829" r="1.875"/>
		
			<circle fill="#FFFFFF" stroke="#202020" stroke-width="2" stroke-linejoin="round" stroke-miterlimit="10" cx="50.339" cy="-33.829" r="1.875"/>
	</g>
	<path fill="none" stroke="#202020" stroke-width="2" stroke-linejoin="round" stroke-miterlimit="10" d="M48.259-21.138
		c0-6.484,5.257-11.741,11.741-11.741s11.741,5.257,11.741,11.741"/>
	
		<rect x="57.784" y="-35.181" fill="#EF293A" stroke="#202020" stroke-width="2" stroke-linejoin="round" stroke-miterlimit="10" width="4.518" height="4.518"/>
	
		<rect x="46" y="-23.398" fill="#EF293A" stroke="#202020" stroke-width="2" stroke-linejoin="round" stroke-miterlimit="10" width="4.518" height="4.518"/>
	
		<rect x="69.482" y="-23.398" fill="#EF293A" stroke="#202020" stroke-width="2" stroke-linejoin="round" stroke-miterlimit="10" width="4.518" height="4.518"/>
</g>
<g>
	<path fill="none" stroke="#202020" stroke-width="2" stroke-linejoin="round" stroke-miterlimit="10" d="M112.261-36.959v16.55
		c0,1.097-0.889,1.986-1.986,1.986h-16.55c-1.097,0-1.986-0.889-1.986-1.986v-16.55"/>
	
		<line fill="none" stroke="#202020" stroke-width="2" stroke-linecap="round" stroke-linejoin="round" stroke-miterlimit="10" x1="90.167" y1="-36.959" x2="113.833" y2="-36.959"/>
	<g>
		
			<line fill="none" stroke="#202020" stroke-width="2" stroke-linecap="round" stroke-linejoin="round" stroke-miterlimit="10" x1="101.876" y1="-18.092" x2="98.393" y2="-13.624"/>
		
			<line fill="none" stroke="#202020" stroke-width="2" stroke-linecap="round" stroke-linejoin="round" stroke-miterlimit="10" x1="102.124" y1="-18.092" x2="105.607" y2="-13.624"/>
	</g>
	<g>
		
			<circle fill="#FFFFFF" stroke="#202020" stroke-width="2" stroke-linejoin="round" stroke-miterlimit="10" cx="102.082" cy="-27.191" r="5.066"/>
		<path fill="#EF293A" stroke="#202020" stroke-width="2" stroke-linejoin="round" stroke-miterlimit="10" d="M108.15-27.191h-6.067
			v-6.067C105.433-33.258,108.15-30.541,108.15-27.191z"/>
	</g>
</g>
</svg>
