<?xml version="1.0" encoding="utf-8"?>
<!-- Generator: Adobe Illustrator 17.0.0, SVG Export Plug-In . SVG Version: 6.00 Build 0)  -->
<!DOCTYPE svg PUBLIC "-//W3C//DTD SVG 1.1//EN" "http://www.w3.org/Graphics/SVG/1.1/DTD/svg11.dtd">
<svg version="1.1" id="Layer_1" xmlns="http://www.w3.org/2000/svg" xmlns:xlink="http://www.w3.org/1999/xlink" x="0px" y="0px"
	 width="35px" height="15.375px" viewBox="0 0 35 15.375" enable-background="new 0 0 35 15.375" xml:space="preserve">
<g>
	<g>
		
			<line fill="none" stroke="#1D1D1B" stroke-width="0.6" stroke-linejoin="round" stroke-miterlimit="10" x1="-28.473" y1="5.187" x2="-20.757" y2="5.187"/>
		
			<circle fill="#FFFFFF" stroke="#202020" stroke-width="0.6" stroke-linejoin="round" stroke-miterlimit="10" cx="-20.492" cy="5.187" r="0.771"/>
		
			<circle fill="#FFFFFF" stroke="#202020" stroke-width="0.6" stroke-linejoin="round" stroke-miterlimit="10" cx="-28.473" cy="5.187" r="0.771"/>
	</g>
	<path fill="none" stroke="#202020" stroke-width="0.6" stroke-linejoin="round" stroke-miterlimit="10" d="M-29.328,10.405
		c0-2.667,2.162-4.828,4.828-4.828s4.828,2.162,4.828,4.828"/>
	
		<rect x="-25.411" y="4.631" fill="#EF293A" stroke="#202020" stroke-width="0.6" stroke-linejoin="round" stroke-miterlimit="10" width="1.858" height="1.858"/>
	
		<rect x="-30.257" y="9.476" fill="#EF293A" stroke="#202020" stroke-width="0.6" stroke-linejoin="round" stroke-miterlimit="10" width="1.858" height="1.858"/>
	
		<rect x="-20.601" y="9.476" fill="#EF293A" stroke="#202020" stroke-width="0.6" stroke-linejoin="round" stroke-miterlimit="10" width="1.858" height="1.858"/>
</g>
<g id="_x38__20_">
	<g>
		<path fill="#FFFFFF" d="M438,161.375c0.553,0,1-0.447,1-1v-12c0-0.552-0.447-1-1-1c-0.553,0-1,0.448-1,1v12
			C437,160.928,437.447,161.375,438,161.375z M444,161.375c0.553,0,1-0.447,1-1v-9c0-0.552-0.447-1-1-1c-0.553,0-1,0.448-1,1v9
			C443,160.928,443.447,161.375,444,161.375z M432,161.375c0.553,0,1-0.447,1-1v-4c0-0.552-0.447-1-1-1c-0.553,0-1,0.448-1,1v4
			C431,160.928,431.447,161.375,432,161.375z M422,141.375v2h2c0,1.623,0,19,0,19c0,2.37,1.644,4,4,4h6l-4,7l3.012-0.013
			l3.988-6.987h2l3.988,6.987l3.012,0.013l-4-7h6c2.356,0,4-1.63,4-4c0,0,0-17.268,0-19h2v-2H422z M450,162.375c0,1.229-0.794,2-2,2
			h-20c-1.206,0-2-0.771-2-2c0,0-0.015-17.743-0.015-19.01h24.029C450.015,145.382,450,162.375,450,162.375z"/>
	</g>
</g>
<circle fill="#EF293A" stroke="#202020" stroke-miterlimit="10" cx="-141.167" cy="-5.116" r="7.417"/>
<circle fill="#FFFFFF" stroke="#202020" stroke-miterlimit="10" cx="-121.833" cy="-5.116" r="7.417"/>
<circle fill="none" stroke="#202020" stroke-miterlimit="10" cx="-121.833" cy="12.718" r="7.417"/>
<g>
	<path fill="none" stroke="#202020" stroke-width="0.6" stroke-miterlimit="10" d="M-63.777,12.618c0,0.604-0.49,1.095-1.095,1.095
		h-4.257c-0.604,0-1.095-0.49-1.095-1.095V3.132c0-0.604,0.49-1.095,1.095-1.095h4.257c0.604,0,1.095,0.49,1.095,1.095V12.618z"/>
	<path fill="none" stroke="#202020" stroke-width="0.6" stroke-miterlimit="10" d="M-64.762,10.229c0,0.179-0.143,0.325-0.32,0.325
		h-3.836c-0.177,0-0.32-0.146-0.32-0.325V4.183c0-0.179,0.143-0.325,0.32-0.325h3.836c0.177,0,0.32,0.146,0.32,0.325V10.229z"/>
	<circle fill="#EF293A" stroke="#202020" stroke-width="0.6" stroke-miterlimit="10" cx="-67" cy="12.156" r="0.685"/>
	
		<line fill="none" stroke="#202020" stroke-width="0.6" stroke-linecap="round" stroke-miterlimit="10" x1="-67.243" y1="2.937" x2="-66.757" y2="2.937"/>
</g>
<circle fill="#EF293A" stroke="#202020" stroke-width="2" stroke-miterlimit="10" cx="-123.667" cy="-28.495" r="5.9"/>
<g>
	<path fill="none" stroke="#202020" stroke-width="0.6" stroke-linejoin="round" stroke-miterlimit="10" d="M21.561,3.257v6.55
		c0,0.434-0.352,0.786-0.786,0.786h-6.55c-0.434,0-0.786-0.352-0.786-0.786v-6.55"/>
	
		<line fill="none" stroke="#202020" stroke-width="0.6" stroke-linecap="round" stroke-linejoin="round" stroke-miterlimit="10" x1="12.817" y1="3.257" x2="22.183" y2="3.257"/>
	<g>
		
			<line fill="none" stroke="#202020" stroke-width="0.6" stroke-linecap="round" stroke-linejoin="round" stroke-miterlimit="10" x1="17.451" y1="10.724" x2="16.073" y2="12.493"/>
		
			<line fill="none" stroke="#202020" stroke-width="0.6" stroke-linecap="round" stroke-linejoin="round" stroke-miterlimit="10" x1="17.549" y1="10.724" x2="18.927" y2="12.493"/>
	</g>
	<g>
		
			<circle fill="#FFFFFF" stroke="#202020" stroke-width="0.6" stroke-linejoin="round" stroke-miterlimit="10" cx="17.533" cy="7.123" r="2.005"/>
		<path fill="#EF293A" stroke="#202020" stroke-width="0.6" stroke-linejoin="round" stroke-miterlimit="10" d="M19.934,7.123
			h-2.401V4.722C18.859,4.722,19.934,5.797,19.934,7.123z"/>
	</g>
</g>
<g>
	<g>
		
			<line fill="none" stroke="#1D1D1B" stroke-width="2" stroke-linejoin="round" stroke-miterlimit="10" x1="-34.161" y1="-33.829" x2="-15.397" y2="-33.829"/>
		
			<circle fill="#FFFFFF" stroke="#202020" stroke-width="2" stroke-linejoin="round" stroke-miterlimit="10" cx="-14.754" cy="-33.829" r="1.875"/>
		
			<circle fill="#FFFFFF" stroke="#202020" stroke-width="2" stroke-linejoin="round" stroke-miterlimit="10" cx="-34.161" cy="-33.829" r="1.875"/>
	</g>
	<path fill="none" stroke="#202020" stroke-width="2" stroke-linejoin="round" stroke-miterlimit="10" d="M-36.241-21.138
		c0-6.484,5.257-11.741,11.741-11.741s11.741,5.257,11.741,11.741"/>
	
		<rect x="-26.716" y="-35.181" fill="#EF293A" stroke="#202020" stroke-width="2" stroke-linejoin="round" stroke-miterlimit="10" width="4.518" height="4.518"/>
	
		<rect x="-38.5" y="-23.398" fill="#EF293A" stroke="#202020" stroke-width="2" stroke-linejoin="round" stroke-miterlimit="10" width="4.518" height="4.518"/>
	
		<rect x="-15.018" y="-23.398" fill="#EF293A" stroke="#202020" stroke-width="2" stroke-linejoin="round" stroke-miterlimit="10" width="4.518" height="4.518"/>
</g>
<g>
	<path fill="none" stroke="#202020" stroke-width="2" stroke-linejoin="round" stroke-miterlimit="10" d="M27.761-36.959v16.55
		c0,1.097-0.889,1.986-1.986,1.986H9.225c-1.097,0-1.986-0.889-1.986-1.986v-16.55"/>
	
		<line fill="none" stroke="#202020" stroke-width="2" stroke-linecap="round" stroke-linejoin="round" stroke-miterlimit="10" x1="5.667" y1="-36.959" x2="29.333" y2="-36.959"/>
	<g>
		
			<line fill="none" stroke="#202020" stroke-width="2" stroke-linecap="round" stroke-linejoin="round" stroke-miterlimit="10" x1="17.376" y1="-18.092" x2="13.893" y2="-13.624"/>
		
			<line fill="none" stroke="#202020" stroke-width="2" stroke-linecap="round" stroke-linejoin="round" stroke-miterlimit="10" x1="17.624" y1="-18.092" x2="21.107" y2="-13.624"/>
	</g>
	<g>
		
			<circle fill="#FFFFFF" stroke="#202020" stroke-width="2" stroke-linejoin="round" stroke-miterlimit="10" cx="17.582" cy="-27.191" r="5.066"/>
		<path fill="#EF293A" stroke="#202020" stroke-width="2" stroke-linejoin="round" stroke-miterlimit="10" d="M23.65-27.191h-6.067
			v-6.067C20.933-33.258,23.65-30.541,23.65-27.191z"/>
	</g>
</g>
</svg>
