<?xml version="1.0" encoding="utf-8"?>
<!-- Generator: Adobe Illustrator 17.0.0, SVG Export Plug-In . SVG Version: 6.00 Build 0)  -->
<!DOCTYPE svg PUBLIC "-//W3C//DTD SVG 1.1//EN" "http://www.w3.org/Graphics/SVG/1.1/DTD/svg11.dtd">
<svg version="1.1" id="Layer_1" xmlns="http://www.w3.org/2000/svg" xmlns:xlink="http://www.w3.org/1999/xlink" x="0px" y="0px"
	 width="128px" height="128px" viewBox="0 0 128 128" enable-background="new 0 0 128 128" xml:space="preserve">
<g opacity="0.5">
	<path fill="#FFFFFF" d="M29.854,18.037c-0.172,0.472-0.418,0.866-0.738,1.182c-0.32,0.316-0.708,0.552-1.164,0.708
		s-0.964,0.234-1.524,0.234c-1.128,0-2.016-0.312-2.664-0.936s-0.972-1.556-0.972-2.796v-4.8h1.848v4.752
		c0,0.688,0.16,1.206,0.48,1.554c0.32,0.348,0.764,0.522,1.332,0.522s1.012-0.168,1.332-0.504c0.32-0.336,0.48-0.84,0.48-1.512
		v-4.812h1.848v4.74C30.112,17.009,30.026,17.565,29.854,18.037z"/>
	<path fill="#FFFFFF" d="M37.602,18.655c-0.151,0.324-0.362,0.596-0.632,0.816c-0.271,0.22-0.593,0.388-0.968,0.504
		s-0.79,0.174-1.246,0.174c-0.64,0-1.268-0.11-1.884-0.33c-0.616-0.22-1.176-0.558-1.68-1.014l1.092-1.308
		c0.384,0.312,0.778,0.56,1.182,0.744s0.846,0.276,1.326,0.276c0.384,0,0.682-0.07,0.894-0.21s0.318-0.334,0.318-0.582v-0.024
		c0-0.12-0.022-0.226-0.066-0.318c-0.044-0.092-0.128-0.178-0.253-0.258c-0.124-0.08-0.297-0.16-0.517-0.24
		c-0.221-0.08-0.507-0.164-0.86-0.252c-0.425-0.104-0.81-0.22-1.155-0.348c-0.345-0.128-0.638-0.286-0.878-0.474
		s-0.427-0.422-0.559-0.702c-0.133-0.28-0.199-0.628-0.199-1.044v-0.024c0-0.384,0.071-0.73,0.214-1.038s0.344-0.574,0.602-0.798
		s0.567-0.396,0.926-0.516c0.358-0.12,0.754-0.18,1.186-0.18c0.616,0,1.182,0.092,1.698,0.276c0.516,0.184,0.99,0.448,1.422,0.792
		l-0.96,1.392c-0.376-0.256-0.744-0.458-1.104-0.606s-0.72-0.222-1.08-0.222s-0.63,0.07-0.81,0.21s-0.27,0.314-0.27,0.522v0.024
		c0,0.136,0.026,0.254,0.079,0.354c0.052,0.1,0.146,0.19,0.283,0.27c0.136,0.08,0.323,0.156,0.559,0.228
		c0.237,0.072,0.536,0.156,0.896,0.252c0.425,0.112,0.804,0.238,1.137,0.378s0.613,0.308,0.842,0.504s0.401,0.426,0.517,0.69
		s0.175,0.58,0.175,0.948v0.024C37.828,17.961,37.752,18.331,37.602,18.655z"/>
	<path fill="#FFFFFF" d="M39.196,20.029v-8.4h6.324v1.644h-4.5v1.704h3.96v1.644h-3.96v1.764h4.56v1.644H39.196z"/>
	<path fill="#FFFFFF" d="M56.607,20.029l-0.768-1.884h-3.552l-0.768,1.884h-1.884l3.6-8.46h1.704l3.6,8.46H56.607z M54.063,13.789
		l-1.116,2.724h2.232L54.063,13.789z"/>
	<path fill="#FFFFFF" d="M64.696,20.029l-1.8-2.688h-1.452v2.688h-1.848v-8.4h3.84c1,0,1.778,0.244,2.334,0.732
		s0.834,1.168,0.834,2.04v0.024c0,0.68-0.166,1.234-0.498,1.662s-0.767,0.742-1.303,0.942l2.053,3H64.696z M64.732,14.497
		c0-0.4-0.128-0.7-0.385-0.9c-0.256-0.2-0.612-0.3-1.068-0.3h-1.836v2.412h1.872c0.456,0,0.806-0.108,1.05-0.324
		c0.245-0.216,0.367-0.504,0.367-0.864V14.497z"/>
	<path fill="#FFFFFF" d="M73.132,20.029l-1.8-2.688H69.88v2.688h-1.849v-8.4h3.841c1,0,1.777,0.244,2.334,0.732
		c0.556,0.488,0.834,1.168,0.834,2.04v0.024c0,0.68-0.166,1.234-0.498,1.662s-0.767,0.742-1.303,0.942l2.053,3H73.132z
		 M73.168,14.497c0-0.4-0.128-0.7-0.385-0.9c-0.256-0.2-0.611-0.3-1.067-0.3H69.88v2.412h1.872c0.456,0,0.806-0.108,1.05-0.324
		s0.366-0.504,0.366-0.864V14.497z"/>
	<path fill="#FFFFFF" d="M84.688,17.515c-0.224,0.524-0.534,0.984-0.93,1.38s-0.868,0.708-1.416,0.936
		c-0.548,0.228-1.146,0.342-1.794,0.342c-0.648,0-1.244-0.114-1.788-0.342c-0.544-0.228-1.014-0.536-1.41-0.924
		s-0.704-0.844-0.924-1.368c-0.22-0.523-0.33-1.086-0.33-1.686v-0.024c0-0.6,0.112-1.162,0.336-1.686
		c0.224-0.523,0.534-0.984,0.93-1.38s0.868-0.708,1.416-0.936s1.146-0.342,1.794-0.342c0.648,0,1.244,0.114,1.788,0.342
		s1.015,0.536,1.41,0.924c0.396,0.388,0.704,0.844,0.924,1.368c0.221,0.524,0.33,1.086,0.33,1.686v0.024
		C85.023,16.429,84.911,16.991,84.688,17.515z M83.092,15.829c0-0.36-0.062-0.7-0.187-1.02c-0.124-0.32-0.3-0.6-0.527-0.84
		c-0.229-0.24-0.498-0.43-0.811-0.57c-0.312-0.14-0.651-0.21-1.02-0.21c-0.376,0-0.718,0.068-1.026,0.204s-0.572,0.324-0.792,0.564
		s-0.392,0.518-0.516,0.834s-0.187,0.654-0.187,1.014v0.024c0,0.36,0.062,0.7,0.187,1.02c0.124,0.32,0.3,0.6,0.528,0.84
		s0.495,0.43,0.804,0.57c0.308,0.14,0.649,0.21,1.025,0.21c0.368,0,0.708-0.068,1.021-0.204c0.312-0.136,0.578-0.324,0.798-0.564
		c0.22-0.24,0.392-0.518,0.516-0.834s0.187-0.654,0.187-1.014C83.092,15.853,83.092,15.829,83.092,15.829z"/>
	<path fill="#FFFFFF" d="M95.655,20.089h-1.607l-1.896-5.496l-1.896,5.496h-1.608l-2.868-8.46h1.98l1.74,5.688l1.884-5.712h1.584
		l1.884,5.712l1.74-5.688h1.932L95.655,20.089z"/>
	<path fill="#FFFFFF" d="M105.497,18.655c-0.151,0.324-0.361,0.596-0.632,0.816s-0.593,0.388-0.968,0.504
		c-0.374,0.116-0.79,0.174-1.246,0.174c-0.64,0-1.268-0.11-1.884-0.33c-0.616-0.22-1.176-0.558-1.68-1.014l1.092-1.308
		c0.384,0.312,0.778,0.56,1.182,0.744s0.847,0.276,1.326,0.276c0.385,0,0.683-0.07,0.895-0.21s0.317-0.334,0.317-0.582v-0.024
		c0-0.12-0.021-0.226-0.065-0.318c-0.045-0.092-0.129-0.178-0.253-0.258s-0.297-0.16-0.518-0.24s-0.507-0.164-0.86-0.252
		c-0.425-0.104-0.81-0.22-1.155-0.348s-0.638-0.286-0.878-0.474c-0.241-0.188-0.427-0.422-0.56-0.702
		c-0.133-0.28-0.198-0.628-0.198-1.044v-0.024c0-0.384,0.071-0.73,0.214-1.038c0.144-0.308,0.344-0.574,0.603-0.798
		c0.258-0.224,0.566-0.396,0.926-0.516c0.358-0.12,0.754-0.18,1.186-0.18c0.616,0,1.182,0.092,1.698,0.276s0.989,0.448,1.422,0.792
		l-0.96,1.392c-0.376-0.256-0.744-0.458-1.104-0.606c-0.359-0.148-0.72-0.222-1.08-0.222c-0.359,0-0.63,0.07-0.81,0.21
		s-0.271,0.314-0.271,0.522v0.024c0,0.136,0.026,0.254,0.079,0.354c0.052,0.1,0.146,0.19,0.282,0.27s0.323,0.156,0.56,0.228
		c0.236,0.072,0.535,0.156,0.896,0.252c0.425,0.112,0.804,0.238,1.137,0.378s0.613,0.308,0.843,0.504
		c0.229,0.196,0.4,0.426,0.517,0.69s0.175,0.58,0.175,0.948v0.024C105.724,17.961,105.648,18.331,105.497,18.655z"/>
</g>
<g>
	
		<circle fill="none" stroke="#FFFFFF" stroke-width="2" stroke-linecap="round" stroke-linejoin="round" stroke-miterlimit="10" cx="38.505" cy="77.499" r="10.577"/>
	
		<circle fill="none" stroke="#FFFFFF" stroke-width="2" stroke-linecap="round" stroke-linejoin="round" stroke-miterlimit="10" cx="87.654" cy="77.499" r="10.577"/>
	
		<circle fill="none" stroke="#FFFFFF" stroke-width="2" stroke-linecap="round" stroke-linejoin="round" stroke-miterlimit="10" cx="63.079" cy="52.925" r="10.577"/>
	
		<circle fill="none" stroke="#FFFFFF" stroke-width="2" stroke-linecap="round" stroke-linejoin="round" stroke-miterlimit="10" cx="63.079" cy="102.074" r="10.577"/>
	<g>
		
			<polyline fill="none" stroke="#FFFFFF" stroke-width="2" stroke-linecap="round" stroke-linejoin="round" stroke-miterlimit="10" points="
			37.055,73.874 33.455,77.475 37.105,81.124 		"/>
		
			<line fill="none" stroke="#FFFFFF" stroke-width="2" stroke-linecap="round" stroke-linejoin="round" stroke-miterlimit="10" x1="33.455" y1="77.475" x2="43.555" y2="77.475"/>
		
			<polyline fill="none" stroke="#FFFFFF" stroke-width="2" stroke-linecap="round" stroke-linejoin="round" stroke-miterlimit="10" points="
			89.175,81.124 92.775,77.525 89.125,73.874 		"/>
		
			<line fill="none" stroke="#FFFFFF" stroke-width="2" stroke-linecap="round" stroke-linejoin="round" stroke-miterlimit="10" x1="92.775" y1="77.525" x2="82.674" y2="77.525"/>
		
			<polyline fill="none" stroke="#FFFFFF" stroke-width="2" stroke-linecap="round" stroke-linejoin="round" stroke-miterlimit="10" points="
			66.704,51.475 63.104,47.875 59.454,51.525 		"/>
		
			<line fill="none" stroke="#FFFFFF" stroke-width="2" stroke-linecap="round" stroke-linejoin="round" stroke-miterlimit="10" x1="63.104" y1="47.875" x2="63.104" y2="57.975"/>
		
			<polyline fill="none" stroke="#FFFFFF" stroke-width="2" stroke-linecap="round" stroke-linejoin="round" stroke-miterlimit="10" points="
			59.454,103.595 63.054,107.195 66.704,103.545 		"/>
		
			<line fill="none" stroke="#FFFFFF" stroke-width="2" stroke-linecap="round" stroke-linejoin="round" stroke-miterlimit="10" x1="63.054" y1="107.195" x2="63.054" y2="97.095"/>
		
			<polyline fill="none" stroke="#FFFFFF" stroke-width="2" stroke-linecap="round" stroke-linejoin="round" stroke-miterlimit="10" stroke-dasharray="3,5" points="
			77.735,52.925 87.654,52.925 87.654,63.502 		"/>
		
			<polyline fill="none" stroke="#FFFFFF" stroke-width="2" stroke-linecap="round" stroke-linejoin="round" stroke-miterlimit="10" stroke-dasharray="3,5" points="
			38.505,63.073 38.505,52.925 49.082,52.925 		"/>
		
			<polyline fill="none" stroke="#FFFFFF" stroke-width="2" stroke-linecap="round" stroke-linejoin="round" stroke-miterlimit="10" stroke-dasharray="3,5" points="
			49.082,102.074 38.505,102.074 38.505,91.543 		"/>
		
			<polyline fill="none" stroke="#FFFFFF" stroke-width="2" stroke-linecap="round" stroke-linejoin="round" stroke-miterlimit="10" stroke-dasharray="3,5" points="
			87.654,92.266 87.654,102.074 76.288,102.074 		"/>
		<g>
			<path fill="none" d="M63.104,111.626c5.281,0,9.577-4.296,9.577-9.577c0-1.825-0.522-3.526-1.411-4.979H54.939
				c-0.889,1.453-1.411,3.154-1.411,4.979C53.528,107.33,57.824,111.626,63.104,111.626z"/>
			<path fill="none" d="M63.104,43.323c-5.281,0-9.577,4.296-9.577,9.577c0,1.804,0.511,3.487,1.381,4.929H71.3
				c0.871-1.442,1.381-3.125,1.381-4.929C72.682,47.619,68.386,43.323,63.104,43.323z"/>
			<path fill="none" d="M28.953,77.474c0,5.281,4.296,9.577,9.577,9.577c1.804,0,3.487-0.51,4.929-1.381V69.278
				c-1.442-0.871-3.125-1.381-4.929-1.381C33.249,67.897,28.953,72.194,28.953,77.474z"/>
			<path fill="none" d="M87.679,87.051c5.281,0,9.577-4.296,9.577-9.577c0-5.28-4.296-9.577-9.577-9.577
				c-1.825,0-3.526,0.522-4.979,1.412v16.33C84.153,86.529,85.854,87.051,87.679,87.051z"/>
			<path fill="#FFFFFF" d="M50.107,77.474c0-4.619-2.726-8.604-6.648-10.46v2.264c2.779,1.678,4.648,4.719,4.648,8.195
				c0,3.477-1.868,6.518-4.648,8.196v2.264C47.381,86.078,50.107,82.093,50.107,77.474z"/>
			<path fill="#FFFFFF" d="M78.103,77.474c0-3.455,1.846-6.48,4.597-8.165v-2.27c-3.894,1.866-6.597,5.836-6.597,10.435
				s2.703,8.569,6.597,10.436v-2.27C79.948,83.955,78.103,80.93,78.103,77.474z"/>
			<path fill="#FFFFFF" d="M63.104,64.477c4.619,0,8.604-2.726,10.46-6.648H71.3c-1.678,2.779-4.719,4.648-8.196,4.648
				c-3.477,0-6.517-1.869-8.195-4.648h-2.264C54.501,61.751,58.485,64.477,63.104,64.477z"/>
			<path fill="#FFFFFF" d="M63.104,90.472c-4.599,0-8.569,2.703-10.435,6.598h2.27c1.684-2.752,4.709-4.598,8.165-4.598
				c3.456,0,6.481,1.846,8.166,4.598h2.27C71.674,93.175,67.704,90.472,63.104,90.472z"/>
		</g>
	</g>
</g>
</svg>
