<?xml version="1.0" encoding="utf-8"?>
<!-- Generator: Adobe Illustrator 17.0.0, SVG Export Plug-In . SVG Version: 6.00 Build 0)  -->
<!DOCTYPE svg PUBLIC "-//W3C//DTD SVG 1.1//EN" "http://www.w3.org/Graphics/SVG/1.1/DTD/svg11.dtd">
<svg version="1.1" id="Layer_1" xmlns="http://www.w3.org/2000/svg" xmlns:xlink="http://www.w3.org/1999/xlink" x="0px" y="0px"
	 width="155.309px" height="192.586px" viewBox="0 0 155.309 192.586" enable-background="new 0 0 155.309 192.586"
	 xml:space="preserve">
<path fill="#EF293A" d="M5.63,81.537c0,0-2.744,14.632-4.268,28.046s-4.877,38.41,11.279,57.615s49.08,30.789,77.43,22.863
	c28.35-7.926,47.251-25.607,65.236-57.615c0,0,0.305-7.621-8.84-38.41c-9.145-30.789-17.986-58.225-39.934-78.649
	s-26.826-4.268-38.105-9.755S43.431-3.25,30.932,4.696s-21.644,20.14-24.387,30.2S7.488,70.725,5.63,81.537z"/>
<g>
	<defs>
		<path id="SVGID_1_" d="M45.26,37.03c0,0,4.573,3.048,17.681,0c0,0,5.792,2.744,7.621,3.353c1.829,0.61,7.15,5.487,9.824,6.707
			c2.674,1.219,15.783,12.499,18.526,15.242c2.744,2.744,26.521,29.57,32.313,36.886c5.792,7.316,17.376,23.778,17.986,25.302
			c0.61,1.524-0.305,3.963-3.048,6.402c-2.744,2.439-10.06,5.792-14.023,7.316c-3.963,1.524-8.536,1.524-25.607,7.011
			c-17.071,5.487-34.447,5.487-38.105,4.268s-22.558-8.536-24.692-9.45c-2.134-0.915-7.926-6.097-8.231-9.755
			c-0.305-3.658-5.487-24.608-12.499-28.613c-7.011-4.005-7.926-25.649-7.621-28.088C15.69,71.173,19.348,55.626,45.26,37.03z"/>
	</defs>
	<clipPath id="SVGID_2_">
		<use xlink:href="#SVGID_1_"  overflow="visible"/>
	</clipPath>
	<polygon clip-path="url(#SVGID_2_)" fill="#E25353" points="7.734,148.273 44.955,55.408 100.843,18.372 142.114,52.665 
		162.689,129.032 124.281,171.466 	"/>
	<path clip-path="url(#SVGID_2_)" fill="#D1373F" d="M24.835,121.776l10.974,7.621c0,0,5.222-23.778,8.403-26.216
		c3.181-2.439,6.534-13.718,7.754-16.157c1.219-2.439,22.53-36.808,42.054-38.371c19.524-1.563,1.843-17.11,1.843-17.11
		l-78.954-1.829l-18.9,10.974l-15.852,49.689L24.835,121.776z"/>
	<path clip-path="url(#SVGID_2_)" fill="#A31C1C" d="M44.955,36.42c0,0-7.011,10.365-13.718,17.376s-9.145,13.108-8.84,23.778
		c0.305,10.67,3.658,22.254,3.353,31.094c-0.305,8.84-9.755-2.744-9.755-2.744s-8.84-29.293-8.231-31.718
		c0.61-2.425,18.87-23.459,18.58-24.678s18.61-14.328,18.61-14.328"/>
	<path clip-path="url(#SVGID_2_)" fill="#F28E78" d="M23.311,129.398c0,0,33.533-50.604,59.749-41.763s22.558,18.9,22.558,18.9
		s28.046-7.011,36.886,3.658s13.413,34.447,13.413,34.447l-83.39,19.205L35.2,171.466L23.311,129.398z"/>
	<path clip-path="url(#SVGID_2_)" fill="#FFFFFF" d="M44.955,31.543c0,0-2.439,9.45,1.524,12.499s18.595,6.097,18.595,6.097h3.353
		c0,0,0.915,1.219,2.439,2.134c1.524,0.915,12.803,8.231,24.692,7.316s0-10.365,0-10.365L57.758,35.201L44.955,31.543z"/>
	<path clip-path="url(#SVGID_2_)" fill="#FFFFFF" d="M29.103,116.594c0,0,3.658-6.153,6.097-4.601
		c2.439,1.552,8.231,4.601,6.707,9.173c0,0,4.877,2.134,6.097,3.048c1.219,0.915,2.439,2.134,2.134,4.268l3.048-1.829
		c0,0,11.279,3.353,12.499,5.487c1.219,2.134,1.524,4.268,1.524,4.268s1.524,0.305,3.048,0c1.524-0.305,13.108,2.439,13.108,2.439
		s2.744,0.915,2.744,3.048c0,0,2.744-0.61,4.268,0c1.524,0.61,12.194,4.219,12.194,6.377c0,2.158-22.184,4.292-22.184,4.292
		l-32.687,1.524l-18.595-7.011V116.594z"/>
</g>
</svg>
