<?xml version="1.0" encoding="utf-8"?>
<!-- Generator: Adobe Illustrator 17.0.0, SVG Export Plug-In . SVG Version: 6.00 Build 0)  -->
<!DOCTYPE svg PUBLIC "-//W3C//DTD SVG 1.1//EN" "http://www.w3.org/Graphics/SVG/1.1/DTD/svg11.dtd">
<svg version="1.1" id="Layer_1" xmlns="http://www.w3.org/2000/svg" xmlns:xlink="http://www.w3.org/1999/xlink" x="0px" y="0px"
	 width="50.183px" height="28.169px" viewBox="0 0 50.183 28.169" enable-background="new 0 0 50.183 28.169" xml:space="preserve">
<g>
	<path fill="#EB3536" d="M50.182,14.074C50.166,6.313,43.84,0,36.08,0c-1.427,0-2.836,0.213-4.187,0.632
		c-1.757,0.545-3.341,1.407-4.704,2.508c1.34,1.646,2.382,3.543,3.049,5.608C31.69,7.177,33.771,6.19,36.08,6.19
		c4.363,0,7.913,3.55,7.913,7.913v9.851c0.199,0.464,1.886,4.079,6.19,4.215V14.093C50.182,14.087,50.182,14.08,50.182,14.074z"/>
</g>
<path fill="#EB3536" d="M14.058,0C6.281,0-0.045,6.327-0.045,14.103c0,7.777,6.327,14.103,14.103,14.103
	c1.427,0,2.835-0.213,4.187-0.632c1.539-0.478,2.978-1.216,4.279-2.194c0.109-0.082,0.264-0.062,0.348,0.047
	c0.944,1.215,2.619,2.657,5.289,2.742V14.093c0-0.007-0.001-0.013-0.001-0.02C28.144,6.313,21.818,0,14.058,0z M14.058,22.016
	c-4.363,0-7.913-3.55-7.913-7.913s3.55-7.913,7.913-7.913s7.913,3.55,7.913,7.913S18.421,22.016,14.058,22.016z"/>
</svg>
