<?xml version="1.0" encoding="utf-8"?>
<!-- Generator: Adobe Illustrator 17.0.0, SVG Export Plug-In . SVG Version: 6.00 Build 0)  -->
<!DOCTYPE svg PUBLIC "-//W3C//DTD SVG 1.1//EN" "http://www.w3.org/Graphics/SVG/1.1/DTD/svg11.dtd">
<svg version="1.1" id="Layer_1" xmlns="http://www.w3.org/2000/svg" xmlns:xlink="http://www.w3.org/1999/xlink" x="0px" y="0px"
	 width="128px" height="128px" viewBox="0 0 128 128" enable-background="new 0 0 128 128" xml:space="preserve">
<g opacity="0.5">
	<path fill="#FFFFFF" d="M27.479,18.655c-0.151,0.324-0.362,0.596-0.632,0.816c-0.271,0.22-0.593,0.388-0.968,0.504
		c-0.375,0.116-0.79,0.174-1.246,0.174c-0.64,0-1.268-0.11-1.884-0.33c-0.616-0.22-1.176-0.558-1.68-1.014l1.092-1.308
		c0.384,0.312,0.778,0.56,1.182,0.744c0.404,0.184,0.846,0.276,1.326,0.276c0.384,0,0.682-0.07,0.894-0.21
		c0.212-0.14,0.318-0.334,0.318-0.582v-0.024c0-0.12-0.022-0.226-0.066-0.318c-0.044-0.092-0.128-0.178-0.253-0.258
		c-0.124-0.08-0.297-0.16-0.517-0.24c-0.221-0.08-0.507-0.164-0.86-0.252c-0.425-0.104-0.81-0.22-1.155-0.348
		c-0.345-0.128-0.638-0.286-0.878-0.474s-0.427-0.422-0.559-0.702c-0.133-0.28-0.199-0.628-0.199-1.044v-0.024
		c0-0.384,0.071-0.73,0.214-1.038s0.344-0.574,0.602-0.798c0.258-0.224,0.567-0.396,0.926-0.516c0.358-0.12,0.754-0.18,1.186-0.18
		c0.616,0,1.182,0.092,1.698,0.276c0.516,0.184,0.99,0.448,1.422,0.792l-0.96,1.392c-0.376-0.256-0.744-0.458-1.104-0.606
		s-0.72-0.222-1.08-0.222c-0.36,0-0.63,0.07-0.81,0.21c-0.18,0.14-0.27,0.314-0.27,0.522v0.024c0,0.136,0.026,0.254,0.079,0.354
		c0.052,0.1,0.146,0.19,0.283,0.27c0.136,0.08,0.323,0.156,0.559,0.228c0.237,0.072,0.536,0.156,0.896,0.252
		c0.425,0.112,0.804,0.238,1.137,0.378s0.613,0.308,0.842,0.504c0.229,0.196,0.401,0.426,0.517,0.69s0.175,0.58,0.175,0.948v0.024
		C27.706,17.961,27.63,18.331,27.479,18.655z"/>
	<path fill="#FFFFFF" d="M38.302,20.089h-1.608l-1.896-5.496l-1.896,5.496h-1.608l-2.868-8.46h1.98l1.74,5.688l1.884-5.712h1.584
		l1.884,5.712l1.74-5.688h1.932L38.302,20.089z"/>
	<path fill="#FFFFFF" d="M42.382,20.029v-8.4h1.848v8.4H42.382z"/>
	<path fill="#FFFFFF" d="M49.894,13.333v6.696h-1.848v-6.696H45.49v-1.704h6.96v1.704H49.894z"/>
	<path fill="#FFFFFF" d="M60.333,19.297c-0.232,0.184-0.486,0.342-0.762,0.474c-0.276,0.132-0.578,0.232-0.906,0.3
		s-0.696,0.102-1.104,0.102c-0.616,0-1.188-0.112-1.716-0.336c-0.528-0.224-0.984-0.53-1.368-0.918
		c-0.384-0.388-0.684-0.846-0.9-1.374c-0.216-0.528-0.324-1.092-0.324-1.692v-0.024c0-0.6,0.108-1.162,0.324-1.686
		c0.216-0.523,0.516-0.984,0.9-1.38c0.384-0.396,0.844-0.708,1.38-0.936c0.536-0.228,1.128-0.342,1.776-0.342
		c0.392,0,0.75,0.032,1.074,0.096c0.324,0.064,0.618,0.152,0.882,0.264c0.264,0.112,0.508,0.248,0.732,0.408
		c0.224,0.16,0.432,0.336,0.624,0.528l-1.176,1.356c-0.328-0.296-0.662-0.528-1.002-0.696s-0.722-0.252-1.146-0.252
		c-0.352,0-0.678,0.068-0.978,0.204c-0.3,0.136-0.558,0.324-0.774,0.564c-0.216,0.24-0.384,0.518-0.504,0.834
		s-0.18,0.654-0.18,1.014v0.024c0,0.36,0.06,0.7,0.18,1.02c0.12,0.32,0.286,0.6,0.498,0.84c0.212,0.24,0.468,0.43,0.768,0.57
		c0.3,0.14,0.63,0.21,0.99,0.21c0.48,0,0.886-0.088,1.218-0.264c0.332-0.176,0.662-0.416,0.99-0.72l1.176,1.188
		C60.79,18.905,60.565,19.113,60.333,19.297z"/>
	<path fill="#FFFFFF" d="M67.498,20.029v-3.372H64.09v3.372h-1.848v-8.4h1.848v3.324h3.408v-3.324h1.848v8.4H67.498z"/>
	<path fill="#FFFFFF" d="M78.79,20.089h-1.632l-3.396-8.46h2.039l2.196,5.916l2.196-5.916h1.992L78.79,20.089z"/>
	<path fill="#FFFFFF" d="M83.325,20.029v-8.4h1.849v8.4H83.325z"/>
	<path fill="#FFFFFF" d="M87.034,20.029v-8.4h6.324v1.644h-4.5v1.704h3.959v1.644h-3.959v1.764h4.56v1.644H87.034z"/>
	<path fill="#FFFFFF" d="M104.061,20.089h-1.607l-1.896-5.496l-1.896,5.496h-1.608l-2.867-8.46h1.979l1.74,5.688l1.884-5.712h1.584
		l1.885,5.712l1.739-5.688h1.933L104.061,20.089z"/>
</g>
<g>
	
		<line fill="none" stroke="#FFFFFF" stroke-width="2" stroke-linecap="round" stroke-linejoin="round" stroke-miterlimit="10" stroke-dasharray="3,5" x1="56.263" y1="87.89" x2="36.185" y2="87.89"/>
	
		<line fill="none" stroke="#FFFFFF" stroke-width="2" stroke-linecap="round" stroke-linejoin="round" stroke-miterlimit="10" stroke-dasharray="3,5" x1="89.974" y1="87.89" x2="74.807" y2="87.89"/>
	
		<line fill="none" stroke="#FFFFFF" stroke-width="2" stroke-linecap="round" stroke-linejoin="round" stroke-miterlimit="10" stroke-dasharray="3,5" x1="74.992" y1="65.11" x2="89.974" y2="65.11"/>
	
		<line fill="none" stroke="#FFFFFF" stroke-width="2" stroke-linecap="round" stroke-linejoin="round" stroke-miterlimit="10" stroke-dasharray="3,5" x1="36.185" y1="65.11" x2="51.167" y2="65.11"/>
	<circle fill="none" stroke="#FFFFFF" stroke-width="2" stroke-miterlimit="10" cx="63.079" cy="76.5" r="29.278"/>
	<g>
		<g>
			
				<polyline fill="none" stroke="#FFFFFF" stroke-width="2" stroke-linecap="round" stroke-linejoin="round" stroke-miterlimit="10" points="
				59.5,57.27 63.054,60.825 66.659,57.221 			"/>
			
				<line fill="none" stroke="#FFFFFF" stroke-width="2" stroke-linecap="round" stroke-linejoin="round" stroke-miterlimit="10" x1="63.054" y1="60.825" x2="63.054" y2="51.589"/>
		</g>
		<g>
			
				<polyline fill="none" stroke="#FFFFFF" stroke-width="2" stroke-linecap="round" stroke-linejoin="round" stroke-miterlimit="10" points="
				66.659,96.651 63.104,93.097 59.5,96.701 			"/>
			
				<line fill="none" stroke="#FFFFFF" stroke-width="2" stroke-linecap="round" stroke-linejoin="round" stroke-miterlimit="10" x1="63.104" y1="93.097" x2="63.104" y2="102.332"/>
		</g>
		
			<rect x="51.106" y="65.11" fill="none" stroke="#FFFFFF" stroke-width="2" stroke-miterlimit="10" width="23.946" height="22.78"/>
	</g>
</g>
</svg>
