<?xml version="1.0" encoding="utf-8"?>
<!-- Generator: Adobe Illustrator 17.0.0, SVG Export Plug-In . SVG Version: 6.00 Build 0)  -->
<!DOCTYPE svg PUBLIC "-//W3C//DTD SVG 1.1//EN" "http://www.w3.org/Graphics/SVG/1.1/DTD/svg11.dtd">
<svg version="1.1" id="Layer_1" xmlns="http://www.w3.org/2000/svg" xmlns:xlink="http://www.w3.org/1999/xlink" x="0px" y="0px"
	 width="90px" height="100px" viewBox="0 0 90 100" enable-background="new 0 0 90 100" xml:space="preserve">
<circle fill="#FFFFFF" stroke="#252525" stroke-width="3" stroke-miterlimit="10" cx="-64" cy="49" r="39.734"/>
<line fill="none" stroke="#2B3536" stroke-width="3" stroke-linecap="round" stroke-linejoin="round" stroke-miterlimit="10" stroke-dasharray="3,5" x1="-73.25" y1="64.458" x2="-100.499" y2="64.458"/>
<line fill="none" stroke="#2B3536" stroke-width="3" stroke-linecap="round" stroke-linejoin="round" stroke-miterlimit="10" stroke-dasharray="3,5" x1="-27.5" y1="64.458" x2="-48.083" y2="64.458"/>
<line fill="none" stroke="#2B3536" stroke-width="3" stroke-linecap="round" stroke-linejoin="round" stroke-miterlimit="10" stroke-dasharray="3,5" x1="-47.833" y1="33.542" x2="-27.5" y2="33.542"/>
<line fill="none" stroke="#2B3536" stroke-width="3" stroke-linecap="round" stroke-linejoin="round" stroke-miterlimit="10" stroke-dasharray="3,5" x1="-100.499" y1="33.542" x2="-80.167" y2="33.542"/>
<g>
	<polyline fill="none" stroke="#252525" stroke-width="3" stroke-linecap="round" stroke-miterlimit="10" points="-68.858,22.903 
		-64.034,27.727 -59.142,22.836 	"/>
	
		<line fill="none" stroke="#252525" stroke-width="3" stroke-linecap="round" stroke-miterlimit="10" x1="-64.034" y1="27.727" x2="-64.034" y2="15.193"/>
</g>
<g>
	<polyline fill="none" stroke="#252525" stroke-width="3" stroke-linecap="round" stroke-miterlimit="10" points="-59.142,76.349 
		-63.966,71.525 -68.858,76.416 	"/>
	
		<line fill="none" stroke="#252525" stroke-width="3" stroke-linecap="round" stroke-miterlimit="10" x1="-63.966" y1="71.525" x2="-63.966" y2="84.059"/>
</g>
<rect x="-80.25" y="33.542" fill="#EB3536" stroke="#252525" stroke-width="3" stroke-miterlimit="10" width="32.499" height="30.916"/>
<g>
	<defs>
		<path id="SVGID_1_" d="M-64,7.766c-22.736,0-41.234,18.498-41.234,41.234S-86.736,90.234-64,90.234S-22.766,71.736-22.766,49
			S-41.264,7.766-64,7.766z"/>
	</defs>
	<clipPath id="SVGID_2_">
		<use xlink:href="#SVGID_1_"  overflow="visible"/>
	</clipPath>
	
		<rect x="-37.792" y="33.542" clip-path="url(#SVGID_2_)" fill="none" stroke="#252525" stroke-width="3" stroke-miterlimit="10" width="32.499" height="30.916"/>
	
		<rect x="-123.832" y="33.542" clip-path="url(#SVGID_2_)" fill="none" stroke="#252525" stroke-width="3" stroke-miterlimit="10" width="32.499" height="30.916"/>
</g>
<g>
	<circle fill="none" stroke="#FFFFFF" stroke-width="3" stroke-miterlimit="10" cx="45" cy="50" r="42.734"/>
	<rect x="17.7" y="27.25" fill="none" stroke="#FFFFFF" stroke-width="3" stroke-miterlimit="10" width="54.601" height="45.5"/>
	<g>
		<g>
			<g>
				
					<polyline fill="none" stroke="#FFFFFF" stroke-width="3" stroke-linecap="round" stroke-linejoin="round" stroke-miterlimit="10" points="
					31.237,32.505 24.991,32.506 24.991,38.837 				"/>
				
					<line fill="none" stroke="#FFFFFF" stroke-width="3" stroke-linecap="round" stroke-linejoin="round" stroke-miterlimit="10" x1="24.991" y1="32.506" x2="33.751" y2="41.266"/>
			</g>
			<g>
				
					<polyline fill="none" stroke="#FFFFFF" stroke-width="3" stroke-linecap="round" stroke-linejoin="round" stroke-miterlimit="10" points="
					58.764,67.495 65.009,67.495 65.009,61.163 				"/>
				
					<line fill="none" stroke="#FFFFFF" stroke-width="3" stroke-linecap="round" stroke-linejoin="round" stroke-miterlimit="10" x1="65.009" y1="67.495" x2="56.249" y2="58.735"/>
			</g>
		</g>
		
			<rect x="32.058" y="39.513" fill="#EB3536" stroke="#FFFFFF" stroke-width="3" stroke-linejoin="round" stroke-miterlimit="10" width="24.882" height="20.735"/>
	</g>
</g>
</svg>
