<?xml version="1.0" encoding="utf-8"?>
<!-- Generator: Adobe Illustrator 17.0.0, SVG Export Plug-In . SVG Version: 6.00 Build 0)  -->
<!DOCTYPE svg PUBLIC "-//W3C//DTD SVG 1.1//EN" "http://www.w3.org/Graphics/SVG/1.1/DTD/svg11.dtd">
<svg version="1.1" id="Layer_1" xmlns="http://www.w3.org/2000/svg" xmlns:xlink="http://www.w3.org/1999/xlink" x="0px" y="0px"
	 width="35px" height="35px" viewBox="0 0 35 35" enable-background="new 0 0 35 35" xml:space="preserve">
<path fill="#FFFFFF" d="M24.485,7.118c-0.014-0.007-0.029-0.023-0.042-0.037c-0.846-0.754-1.841-1.114-2.985-1.071l-0.035-0.078
	c0.007-0.007,0.014-0.007,0.021-0.007c1.037-0.227,1.651-0.46,1.834-0.713c0.064-0.205-0.014-0.317-0.24-0.345
	c-0.522,0.063-1.002,0.169-1.432,0.331c0.544-0.331,0.755-0.564,0.635-0.684c-0.536,0.014-1.114,0.276-1.722,0.791
	c0.226-0.367,0.311-0.565,0.254-0.6C20.484,4.895,20.23,5.1,20.011,5.318c-0.459,0.487-0.826,0.939-1.108,1.348l-0.014,0.035
	c-0.726,1.122-1.235,2.25-1.538,3.401l-0.112,0.085l-0.021,0.02c-0.438-0.522-0.96-0.959-1.588-1.313
	c-0.741-0.458-1.609-0.896-2.611-1.319c-1.094-0.536-2.202-0.981-3.323-1.327c-0.007,1.193,0.607,2.145,1.828,2.836v0.021
	c-0.431-0.008-0.847,0.056-1.249,0.177c0.078,1.107,0.903,1.869,2.47,2.292l-0.007,0.021c-0.613-0.035-1.122,0.17-1.516,0.593
	c0.515,0.96,1.425,1.418,2.745,1.383c-0.262,0.127-0.466,0.267-0.6,0.423c-0.24,0.24-0.318,0.523-0.24,0.846
	c0.282,0.487,0.79,0.712,1.538,0.678l0,0l0.042,0.049c-0.007,0.007-0.014,0.014-0.021,0.021c-1.291,1.27-2.85,1.841-4.678,1.722
	L9.98,17.326c-1.114-0.008-2.307-0.515-3.598-1.531c1.298,1.777,3.02,3.062,5.151,3.867c2.441,0.769,4.883,0.825,7.317,0.169h0.042
	c2.364-0.649,4.367-1.983,6.018-4c0.762-1.058,1.242-2.066,1.433-3.034c1.235,0.042,2.123-0.296,2.674-1.015l-0.014-0.022
	c-0.41,0.141-1.214,0.099-2.406-0.134v-0.127c0-0.006,0-0.006,0.007,0c1.305-0.141,2.074-0.542,2.322-1.206
	c-0.911,0.339-1.807,0.345-2.695,0.029C26.066,9.149,25.487,8.084,24.485,7.118z"/>
</svg>
